<svg width="24" height="24" viewBox="0 0 24 24" fill="none" xmlns="http://www.w3.org/2000/svg">
<path fill-rule="evenodd" clip-rule="evenodd" d="M12 0C5.37258 0 0 5.37258 0 12C0 18.6274 5.37258 24 12 24C18.6274 24 24 18.6274 24 12C24 5.37258 18.6274 0 12 0ZM17.1688 9.33498H13.7792V8.36384H17.1688V9.33498ZM16.87 10.1502C16.4621 9.96976 16.0038 9.87918 15.4943 9.87918C14.6371 9.87918 13.9409 10.1472 13.4028 10.6796C12.8662 11.2134 12.5976 11.9803 12.5976 12.9804C12.5976 14.0466 12.8941 14.8173 13.4909 15.2902C14.0847 15.7639 14.7718 16 15.5507 16C16.4937 16 17.2275 15.7194 17.7513 15.1588C18.0869 14.8054 18.2766 14.4572 18.318 14.1157H16.7564C16.666 14.2849 16.5607 14.4171 16.441 14.5129C16.2235 14.6888 15.9398 14.7772 15.5929 14.7772C15.2632 14.7772 14.9825 14.7044 14.7492 14.5596C14.3639 14.3273 14.1622 13.9211 14.1366 13.3428H18.3985C18.4053 12.8446 18.3887 12.4615 18.3473 12.1971C18.2766 11.745 18.1216 11.347 17.88 11.004C17.6151 10.615 17.2787 10.3299 16.87 10.1502ZM9.42239 8C10.3872 8.01411 11.0698 8.29104 11.4724 8.83155C11.714 9.16343 11.8352 9.55991 11.8352 10.0225C11.8352 10.4984 11.714 10.8822 11.4694 11.1718C11.3325 11.3336 11.1315 11.4821 10.8659 11.6158C11.2692 11.7613 11.5733 11.9907 11.7803 12.3048C11.985 12.6181 12.0881 12.9997 12.0881 13.4482C12.0881 13.9107 11.9707 14.3258 11.7351 14.6925C11.5861 14.9353 11.3994 15.1402 11.1752 15.3065C10.9231 15.4974 10.6258 15.6273 10.2819 15.6986C9.93792 15.7691 9.56614 15.8032 9.16426 15.8032H5.59999V8H9.42239Z" fill="white"/>
<path fill-rule="evenodd" clip-rule="evenodd" d="M7.17665 9.35498H8.89857C9.27713 9.35498 9.5887 9.39582 9.83404 9.47674C10.117 9.59405 10.2585 9.83387 10.2585 10.1984C10.2585 10.5251 10.1509 10.7538 9.93715 10.883C9.72191 11.0122 9.4427 11.0767 9.10027 11.0767H7.17665V9.35498ZM14.5821 11.4539C14.7981 11.2341 15.1037 11.1243 15.495 11.1243C15.8563 11.1243 16.1581 11.2275 16.4034 11.4346C16.6457 11.6432 16.7827 11.9462 16.8106 12.3471H14.1742C14.2299 11.9714 14.3661 11.6737 14.5821 11.4539ZM9.12435 12.3678H7.17665V14.449H9.09726C9.44044 14.449 9.70836 14.4029 9.89877 14.3116C10.2457 14.1408 10.4188 13.8171 10.4188 13.3375C10.4188 12.9306 10.2517 12.6522 9.91532 12.5C9.72717 12.4154 9.46302 12.3708 9.12435 12.3678Z" fill="white"/>
</svg>
