<svg width="24" height="24" viewBox="0 0 24 24" fill="none" xmlns="http://www.w3.org/2000/svg">
<path fill-rule="evenodd" clip-rule="evenodd" d="M12 0C5.37258 0 0 5.37258 0 12C0 18.6274 5.37258 24 12 24C18.6274 24 24 18.6274 24 12C24 5.37258 18.6274 0 12 0ZM18.2694 10.7045C18.3559 11.1249 18.4 11.558 18.4 11.9912C18.4 12.424 18.3559 12.8562 18.2694 13.2775C18.185 13.6888 18.06 14.0926 17.8962 14.4786C17.7362 14.8578 17.5378 15.2232 17.3059 15.564C17.0775 15.9026 16.8143 16.2203 16.5252 16.5099C16.2355 16.7982 15.9168 17.0606 15.5783 17.29C15.2364 17.5203 14.8705 17.7185 14.4911 17.8792C14.1045 18.0421 13.6998 18.1669 13.2888 18.2512C12.8669 18.338 12.4332 18.3823 11.9997 18.3823C11.5659 18.3823 11.1322 18.338 10.7109 18.2512C10.2993 18.1669 9.89461 18.0421 9.50833 17.8792C9.12895 17.7185 8.76266 17.5203 8.42078 17.29C8.08232 17.0607 7.76356 16.7982 7.47448 16.5099C7.1851 16.2203 6.92195 15.9026 6.69319 15.564C6.46255 15.2232 6.26378 14.8578 6.10315 14.4786C5.93937 14.0926 5.81407 13.6888 5.72938 13.2775C5.64376 12.8562 5.59999 12.424 5.59999 11.9912C5.59999 11.558 5.64373 11.1249 5.7294 10.7045C5.8141 10.2932 5.9394 9.88874 6.10318 9.50335C6.2638 9.12389 6.46257 8.75815 6.69321 8.41736C6.92197 8.07847 7.18512 7.76139 7.4745 7.47148C7.76358 7.18312 8.08235 6.92132 8.4208 6.69227C8.76269 6.46101 9.12897 6.26287 9.50836 6.10183C9.89463 5.93859 10.2993 5.81347 10.7109 5.72985C11.1322 5.64372 11.566 5.60002 11.9997 5.60002C12.4332 5.60002 12.8669 5.64372 13.2888 5.72985C13.6998 5.81349 14.1045 5.93862 14.4911 6.10183C14.8705 6.26285 15.2364 6.46101 15.5783 6.69227C15.9168 6.92132 16.2356 7.18312 16.5253 7.47148C16.8143 7.76139 17.0775 8.07847 17.3059 8.41736C17.5378 8.75815 17.7362 9.12391 17.8962 9.50335C18.06 9.88874 18.185 10.2932 18.2694 10.7045Z" fill="white"/>
<path fill-rule="evenodd" clip-rule="evenodd" d="M15.6088 7.89569L15.6093 7.89497C14.647 7.04769 13.3835 6.53375 11.9997 6.53375C11.5556 6.53375 11.1247 6.58743 10.7118 6.68666L10.7207 6.69855C10.8501 6.87164 11.8461 8.20365 12.7551 9.87033C14.8005 9.10461 15.583 7.93427 15.6088 7.89569ZM16.2203 8.52452C16.199 8.5549 15.3198 9.80917 13.1757 10.6836C13.3026 10.9439 13.4254 11.2088 13.5389 11.475C13.5792 11.5705 13.6186 11.6641 13.657 11.7577C15.4986 11.5263 17.3135 11.9038 17.457 11.9336L17.4634 11.9349C17.4509 10.6411 16.9875 9.45371 16.2206 8.52409L16.2203 8.52452ZM13.9901 12.619C14.707 14.5863 14.9983 16.1885 15.054 16.5174C16.2812 15.6904 17.1528 14.3773 17.3959 12.8562C17.2834 12.82 15.7543 12.3366 13.9901 12.619ZM12.966 12.8718C13.7351 14.8678 14.0526 16.5392 14.1336 17.0161C13.4776 17.2947 12.7566 17.4486 11.9997 17.4486C10.7322 17.4486 9.56835 17.0139 8.64047 16.2933C8.65186 16.2686 9.70497 14.0063 12.9298 12.8837C12.9373 12.8809 12.945 12.8785 12.9527 12.8761L12.9527 12.8761L12.966 12.8718ZM12.15 11.04C12.3066 11.3465 12.4563 11.6573 12.5935 11.9675C12.5216 11.988 12.4491 12.0093 12.3779 12.033C9.42834 12.9854 7.93262 15.6351 7.93449 15.638C7.06382 14.6715 6.53411 13.3933 6.53411 11.9912C6.53411 11.9507 6.53545 11.9111 6.53679 11.8712L6.53849 11.817C6.63536 11.8208 9.33583 11.8813 12.15 11.04ZM11.6972 10.1995C10.7512 8.52122 9.74054 7.1516 9.66772 7.05452C8.14356 7.77322 7.00601 9.17564 6.65129 10.8658L6.65655 10.8658C6.84333 10.8676 9.1006 10.8884 11.6972 10.1995Z" fill="white"/>
</svg>
