<svg width="194" height="37" viewBox="0 0 194 37" fill="none" xmlns="http://www.w3.org/2000/svg">
<g clip-path="url(#clip0)">
<path fill-rule="evenodd" clip-rule="evenodd" d="M71.0634 32.4481H73.6561L63.7945 15.0375H60.0804L50.1949 32.4481H52.8353L54.8991 28.7691H68.9997L71.0634 32.4481ZM67.9022 26.7332H56.0244L61.5199 17.0734H62.4663L67.9101 26.7332H67.9022ZM74.4395 36.8097H76.3482V31.0154H76.4516C77.3701 32.2655 78.5193 32.6029 82.0186 32.6029C85.3429 32.6029 86.9097 32.3925 87.9038 31.8091C89.4745 30.8924 90.1545 29.2493 90.1545 26.4038C90.1545 23.5582 89.5779 22.0184 88.1145 21.1056C87.017 20.3992 85.6292 20.1928 82.2294 20.1928C78.412 20.1928 77.3105 20.5023 76.4476 21.9152H76.3442V20.3277H74.4355V36.7739L74.4395 36.8097ZM82.6787 21.8755C87.2556 21.8755 88.1185 22.6097 88.1185 26.4474C88.1185 28.5072 87.7765 29.5787 86.9256 30.2058C86.17 30.7534 84.9373 30.936 81.9828 30.936C77.1713 30.936 76.3084 30.2296 76.3084 26.2887C76.3084 24.2805 76.6464 23.2368 77.5013 22.5819C78.237 22.062 79.5174 21.8755 82.6708 21.8755H82.6787ZM91.9916 36.8097H93.9003V31.0154H94.0037C94.9183 32.2655 96.0714 32.6029 99.5707 32.6029C102.891 32.6029 104.462 32.3925 105.456 31.8091C107.027 30.8924 107.707 29.2493 107.707 26.4038C107.707 23.5582 107.13 22.0184 105.667 21.1056C104.565 20.3992 103.181 20.1928 99.7815 20.1928C95.9601 20.1928 94.8626 20.5023 93.9997 21.9152H93.8963V20.3277H91.9876V36.7739L91.9916 36.8097ZM100.243 21.8755C104.824 21.8755 105.687 22.6097 105.687 26.4474C105.687 28.5072 105.345 29.5787 104.494 30.2058C103.734 30.7534 102.505 30.936 99.5509 30.936C94.7393 30.936 93.8725 30.2296 93.8725 26.2887C93.8725 24.2805 94.2144 23.2368 95.0654 22.5819C95.7971 22.062 97.0815 21.8755 100.235 21.8755H100.243Z" fill="white"/>
<path fill-rule="evenodd" clip-rule="evenodd" d="M117.739 32.3367L107.897 14.9142L107.711 14.5848H110.784L110.848 14.6999L119.413 29.8563H119.99L128.34 14.6999L128.404 14.5848H131.506L131.323 14.9142L121.716 32.3328L121.652 32.4479H117.807L117.743 32.3367H117.739ZM143.089 29.2531C143.158 28.9934 143.199 28.7275 143.212 28.4593L143.232 28.2569H145.678V28.4871C145.638 30.019 145.161 31.0509 144.036 31.7057C142.91 32.3606 141.252 32.5947 138.763 32.5947C137.168 32.6281 135.573 32.5432 133.991 32.3407C133.095 32.2552 132.236 31.9393 131.498 31.424C130.85 30.9 130.374 30.1953 130.13 29.3999C129.809 28.3729 129.659 27.3004 129.685 26.225C129.638 24.9931 129.831 23.7639 130.253 22.6055C130.595 21.7171 131.242 20.9788 132.078 20.522C132.698 20.2021 133.373 20.0002 134.067 19.9267C135.199 19.799 136.339 19.7446 137.478 19.764C139.586 19.764 141.01 19.8513 142.051 20.0973C142.957 20.2739 143.78 20.7424 144.393 21.4308C144.88 21.9831 145.22 22.6493 145.38 23.3675C145.593 24.4349 145.693 25.5217 145.678 26.6099V26.8203H132.202C132.217 27.3712 132.295 27.9186 132.436 28.4514C132.535 28.8612 132.736 29.2393 133.021 29.5507C133.47 29.9598 134.041 30.2107 134.647 30.2651C135.936 30.4374 137.236 30.5064 138.536 30.4715C139.531 30.5028 140.527 30.4404 141.511 30.2849C142.007 30.2242 142.468 29.9943 142.815 29.6341C142.933 29.5265 143.021 29.3896 143.069 29.2372L143.089 29.2531ZM133.363 22.5063C132.683 22.923 132.392 23.6295 132.277 24.7566H143.129C143.085 23.6453 142.799 22.9389 142.047 22.5182C141.2 22.046 139.761 21.8872 137.447 21.8872C135.395 21.8872 134.126 22.038 133.363 22.5063ZM146.636 28.6617V27.8125H149.11V28.0188L149.133 28.3601C149.133 29.3563 149.205 29.8881 149.861 30.15C150.605 30.4477 152.052 30.4834 154.744 30.4834C155.894 30.5066 157.045 30.4708 158.192 30.3762C158.647 30.3703 159.09 30.2324 159.468 29.9794C159.615 29.8641 159.729 29.7121 159.798 29.5388C159.875 29.3169 159.912 29.083 159.906 28.8483C159.906 28.2133 159.739 27.8005 159.321 27.5505C158.904 27.3005 158.088 27.1775 156.915 27.1894H155.683L151.368 27.1417C149.722 27.1179 148.585 26.8758 147.881 26.3163C147.177 25.7567 146.831 24.8677 146.831 23.5779C146.815 22.9731 146.931 22.3721 147.169 21.8158C147.395 21.321 147.756 20.9 148.211 20.6014C148.889 20.2403 149.635 20.0266 150.402 19.9743C151.781 19.8265 153.167 19.7629 154.553 19.7838C156.079 19.7354 157.605 19.8471 159.106 20.1172C159.985 20.2513 160.783 20.7033 161.349 21.3872C161.582 21.6564 161.747 21.9776 161.83 22.3238C161.928 22.8469 161.967 23.3794 161.946 23.9112V24.1375H159.492V23.9112C159.505 23.6067 159.482 23.3017 159.425 23.0024C159.395 22.8487 159.315 22.7091 159.198 22.6055C158.971 22.3674 158.522 22.2087 157.786 22.0856C156.702 21.9507 155.61 21.8936 154.518 21.915C153.455 21.9026 152.393 21.9503 151.336 22.0579C150.812 22.0752 150.298 22.2109 149.833 22.4547C149.67 22.5953 149.543 22.7737 149.464 22.9742C149.385 23.1747 149.356 23.3915 149.38 23.6056C149.38 24.1732 149.523 24.5224 149.961 24.7169C150.466 24.9391 151.34 25.0026 152.744 24.9748C153.118 24.9748 154.048 24.9748 155.074 24.9748C156.299 24.9947 157.651 25.0304 158.331 25.0622C159.774 25.1138 160.792 25.4193 161.46 26.0265C162.129 26.6338 162.443 27.5545 162.443 28.8046C162.468 29.4608 162.341 30.114 162.073 30.7136C161.813 31.2276 161.395 31.6449 160.88 31.9042C160.204 32.2135 159.475 32.3939 158.733 32.436C157.746 32.5391 156.438 32.5868 154.704 32.5868C153.175 32.6174 151.645 32.5524 150.124 32.3923C149.323 32.3437 148.549 32.0894 147.877 31.6541C147.446 31.3632 147.114 30.9478 146.926 30.4635C146.725 29.8726 146.635 29.2497 146.66 28.626L146.636 28.6617ZM165.68 19.9307V16.8986H168.038V19.9029H176.511V21.9904H168.03V26.9909V27.0147C168.081 29.2015 168.085 29.2848 168.427 29.7174C168.683 30.0101 169.028 30.2109 169.409 30.2889C170.079 30.4327 170.764 30.494 171.449 30.4715C172.054 30.4997 172.661 30.445 173.251 30.3087C173.58 30.2308 173.866 30.027 174.046 29.7412C174.184 29.5266 174.272 29.2839 174.304 29.0308C174.365 28.5185 174.389 28.0027 174.376 27.487V26.5068H176.73V27.487C176.749 28.2122 176.701 28.9375 176.587 29.6539C176.504 30.138 176.317 30.5983 176.038 31.0033C175.635 31.6039 175.03 32.0414 174.332 32.2375C173.338 32.5092 172.308 32.6283 171.278 32.5907C170.232 32.6225 169.186 32.5131 168.169 32.2653C167.472 32.103 166.853 31.7064 166.415 31.1422C166.124 30.744 165.927 30.2855 165.839 29.8008C165.721 29.0808 165.671 28.3512 165.691 27.622V22.0063H162.673V19.9187H165.656L165.68 19.9307ZM182.023 19.9307C183.097 19.8075 184.178 19.7545 185.26 19.7719C186.708 19.7425 188.157 19.8062 189.598 19.9624C190.387 20.0301 191.152 20.2714 191.837 20.6688C192.605 21.1546 193.191 21.8801 193.503 22.7325C193.879 23.8421 194.049 25.0109 194.004 26.1813C194.051 27.3947 193.871 28.6062 193.471 29.7531C193.148 30.6215 192.529 31.3482 191.721 31.8049C191.083 32.153 190.381 32.3715 189.658 32.4479C188.483 32.5841 187.301 32.6412 186.119 32.6185C184.773 32.6458 183.427 32.5822 182.09 32.428C181.306 32.3499 180.547 32.1107 179.86 31.7256C179.055 31.2781 178.436 30.5591 178.114 29.6976C177.725 28.5484 177.553 27.3375 177.605 26.1258C177.559 24.9082 177.758 23.6937 178.189 22.5539C178.545 21.6663 179.206 20.9344 180.054 20.4902C180.672 20.1862 181.338 19.9928 182.023 19.9187V19.9307ZM188.445 21.9944C187.733 21.9229 186.799 21.8872 185.57 21.8872C183.204 21.8872 181.816 22.0539 181.045 22.681C180.273 23.308 180.094 24.3915 180.094 26.2528C180.094 27.4751 180.21 28.3403 180.492 28.9475C180.622 29.2267 180.81 29.4751 181.044 29.6763C181.278 29.8774 181.552 30.0267 181.848 30.1143C182.334 30.2726 182.84 30.366 183.351 30.3921C184.003 30.4516 184.85 30.4754 185.971 30.4754C186.997 30.5014 188.024 30.447 189.041 30.3127C189.575 30.2522 190.085 30.0554 190.521 29.7412C190.899 29.4205 191.166 28.9885 191.284 28.507C191.475 27.7216 191.558 26.9137 191.531 26.1059C191.577 25.2256 191.455 24.3445 191.169 23.5104C191.061 23.2417 190.9 22.9977 190.694 22.793C190.489 22.5884 190.245 22.4274 189.976 22.3198C189.488 22.1216 188.971 22.0049 188.445 21.9745V21.9944Z" fill="white"/>
<path fill-rule="evenodd" clip-rule="evenodd" d="M25.8327 21.8872L22.0312 19.6766L21.4666 20.0021L21.0451 20.2481L20.4367 20.5974L18.7268 21.5895L17.9315 22.0578L17.7883 22.1412L4.01385 30.0785V26.2885L0.192464 28.4911V36.6626L3.05155 35.0196L17.1362 26.8957L17.9315 26.4353L18.7268 25.971L22.5283 23.7802L25.2561 22.1928L25.8168 21.8713L25.8327 21.8872ZM33.4636 30.0706L26.3497 25.971L22.5442 28.1656L34.4259 35.0116L37.285 36.6546V10.9138L36.3306 10.3661L28.0118 5.57194L19.697 0.781749L18.7268 0.230103L17.7724 0.781749L9.45366 5.57194L1.13887 10.3661L0.184509 10.9138V24.0898L4.0059 21.8912L11.3663 17.6486L18.7268 13.4061L21.2678 14.8706L25.8248 17.4978L29.6303 19.6885L33.4477 21.8912V30.0706H33.4636ZM9.46957 14.3586L4.01385 17.4978V13.1045L11.3743 8.86595L18.7268 4.62343L26.0872 8.86595L33.4477 13.1045V17.4978L27.9959 14.3586L19.6811 9.56444L18.7268 9.01279L17.7724 9.56444L9.46957 14.3586Z" fill="url(#paint0_linear)"/>
</g>
<defs>
<linearGradient id="paint0_linear" x1="0.184509" y1="16.989" x2="37.285" y2="16.989" gradientUnits="userSpaceOnUse">
<stop stop-color="#FF1500"/>
<stop offset="1" stop-color="#FE7000"/>
</linearGradient>
<clipPath id="clip0">
<rect width="194" height="37" fill="white"/>
</clipPath>
</defs>
</svg>
