<svg width="14" height="14" viewBox="0 0 14 14" fill="none" xmlns="http://www.w3.org/2000/svg">
<path fill-rule="evenodd" clip-rule="evenodd" d="M9.67846 8.32222L8.24394 7.47277L8.03087 7.59782L7.87181 7.69237L7.64223 7.82658L6.997 8.20784L6.69689 8.3878L6.64287 8.41983L1.44502 11.4699V10.0135L0.00300171 10.8599V14L1.08189 13.3686L6.39679 10.2468L6.69689 10.0699L6.997 9.8915L8.43151 9.04967L9.46088 8.43965L9.67246 8.31612L9.67846 8.32222ZM12.558 11.4669L9.87353 9.8915L8.43752 10.7349L12.9211 13.3656L14 13.9969V4.10545L13.6399 3.89499L10.5008 2.05272L7.36313 0.211982L6.997 0L6.63687 0.211982L3.49775 2.05272L0.36013 3.89499L0 4.10545V9.16863L1.44202 8.32375L4.21951 6.69346L6.997 5.06318L7.95584 5.62593L9.67546 6.63551L11.1115 7.47734L12.552 8.32375V11.4669H12.558ZM3.50375 5.42919L1.44502 6.63551V4.94728L4.22251 3.31852L6.997 1.68824L9.77449 3.31852L12.552 4.94728V6.63551L10.4947 5.42919L7.35713 3.58693L6.997 3.37494L6.63687 3.58693L3.50375 5.42919Z" fill="url(#paint0_linear)"/>
<defs>
<linearGradient id="paint0_linear" x1="-1.83332e-07" y1="6.44" x2="14" y2="6.44" gradientUnits="userSpaceOnUse">
<stop stop-color="#FF1500"/>
<stop offset="1" stop-color="#FE7000"/>
</linearGradient>
</defs>
</svg>
