<svg width="622" height="372" viewBox="0 0 622 372" fill="none" xmlns="http://www.w3.org/2000/svg">
<path opacity="0.1" fill-rule="evenodd" clip-rule="evenodd" d="M318.669 200.347C298.096 200.347 281.419 183.67 281.419 163.097C281.419 142.525 298.096 125.848 318.669 125.848C339.241 125.848 355.918 142.525 355.918 163.097C355.918 183.67 339.241 200.347 318.669 200.347Z" fill="#D5D5D9"/>
<path opacity="0.2" d="M167.771 243.934C168.752 223.076 177.623 150.952 195.427 164.878C213.232 178.805 214.354 226.981 227.794 238.224C241.234 249.468 245.253 189.09 255.003 190.184C264.753 191.278 281.419 258.651 281.419 258.651L281.003 258.228C281.003 258.228 165.604 258.371 167.174 259.905C167.166 259.905 167.472 250.234 167.771 243.934Z" fill="#9E9E9E"/>
<path opacity="0.78" d="M290.064 151.636H348.182C349.917 151.723 351.28 153.177 351.28 154.943C351.28 156.708 349.917 158.162 348.182 158.249H335.791C334.056 158.336 332.692 159.79 332.692 161.556C332.692 163.321 334.056 164.775 335.791 164.862H360.469C361.671 164.802 362.807 165.419 363.425 166.467C364.043 167.514 364.043 168.823 363.425 169.87C362.807 170.918 361.671 171.535 360.469 171.475H265.22C263.424 171.488 261.958 170.02 261.945 168.196C261.932 166.373 263.377 164.883 265.173 164.87H310.042C311.243 164.93 312.379 164.313 312.998 163.266C313.616 162.218 313.616 160.909 312.998 159.862C312.379 158.814 311.243 158.197 310.042 158.257H290.064C288.862 158.317 287.726 157.7 287.108 156.653C286.49 155.605 286.49 154.296 287.108 153.249C287.726 152.201 288.862 151.584 290.064 151.644V151.636Z" fill="white"/>
<path opacity="0.73" d="M224.337 186.02H289.477C291.213 186.107 292.576 187.562 292.576 189.327C292.576 191.092 291.213 192.547 289.477 192.633H270.073C268.872 192.573 267.736 193.19 267.118 194.238C266.499 195.286 266.499 196.594 267.118 197.642C267.736 198.69 268.872 199.306 270.073 199.246H338.235C339.437 199.186 340.573 199.803 341.191 200.851C341.809 201.899 341.809 203.207 341.191 204.255C340.573 205.303 339.437 205.919 338.235 205.859H318.831C317.63 205.799 316.494 206.416 315.876 207.464C315.258 208.512 315.258 209.82 315.876 210.868C316.494 211.915 317.63 212.532 318.831 212.472H343.525C345.261 212.559 346.624 214.014 346.624 215.779C346.624 217.544 345.261 218.998 343.525 219.085H278.386C276.59 219.098 275.124 217.631 275.111 215.807C275.098 213.983 276.543 212.493 278.338 212.48H285.793C286.994 212.54 288.13 211.923 288.748 210.876C289.367 209.828 289.367 208.52 288.748 207.472C288.13 206.424 286.994 205.807 285.793 205.867H229.612C227.816 205.88 226.35 204.413 226.337 202.589C226.324 200.765 227.769 199.276 229.564 199.262H237.043C238.244 199.322 239.38 198.706 239.998 197.658C240.616 196.61 240.616 195.302 239.998 194.254C239.38 193.206 238.244 192.589 237.043 192.649H224.345C222.61 192.563 221.247 191.108 221.247 189.343C221.247 187.578 222.61 186.123 224.345 186.036L224.337 186.02Z" fill="white"/>
<path d="M17.4166 371.83C17.4166 371.83 -8.45354 337.625 3.9709 296.783C16.3953 255.941 48.0522 224.629 37.8403 177.321C25.7563 121.164 54.1792 73.6853 104.558 79.8115C188.976 90.022 249.737 26.2068 280.542 19.9104C372.109 1.02107 388.788 70.1116 438.146 76.9186C544.689 91.3833 577.708 138.011 573.963 227.182C572.772 256.452 654.297 315.332 607.492 372H17.4166V371.83Z" fill="#F6F6F6"/>
<path opacity="0.03" d="M227.034 73.7838V64.7645L70.4523 64.7645V73.7838L227.034 73.7838Z" fill="#121212"/>
<path opacity="0.03" d="M227.031 142.361V133.342L70.4497 133.342V142.361L227.031 142.361Z" fill="#121212"/>
<path opacity="0.03" d="M227.029 210.938V201.919L70.4469 201.919V210.938L227.029 210.938Z" fill="#121212"/>
<path opacity="0.03" d="M77.837 10.0402H68.8165V211.015H77.837V10.0402Z" fill="#121212"/>
<path opacity="0.03" d="M152.043 10.0402H143.023V211.015H152.043V10.0402Z" fill="#121212"/>
<path opacity="0.03" d="M226.42 10.0402H217.399V211.015H226.42V10.0402Z" fill="#121212"/>
<path d="M127.535 169.323C125.662 171.535 125.152 175.279 124.471 178.002C123.961 180.214 123.45 182.256 122.939 184.468H121.578C122.599 178.512 123.45 172.556 125.152 166.77C126.343 162.686 128.896 160.644 132.981 159.453C136.385 158.432 139.789 157.581 143.193 156.73C143.703 156.56 134.002 156.9 129.577 158.091C128.045 158.602 126.003 158.942 124.301 159.623C126.514 153.327 129.237 147.03 132.13 140.904C132.47 140.223 113.579 157.921 118.344 184.468H116.982L116.812 184.298C114.94 177.832 115.28 170.854 112.557 164.558C110.175 158.772 105.579 154.348 100.643 150.774C100.133 150.434 99.7924 151.114 99.9626 151.455C102.345 157.07 106.43 161.665 108.983 167.281C111.026 171.875 112.727 176.64 114.429 181.235C112.217 178.853 109.664 177.321 106.09 176.811C100.303 176.13 97.75 179.533 96.048 184.468C95.8778 184.979 96.7288 185.319 96.899 184.809C98.601 181.575 103.196 180.725 106.6 180.725C110.004 180.725 112.727 182.426 115.28 184.468H111.196L114.429 203.698H125.492L128.726 184.468H126.003C126.854 182.256 127.705 180.044 128.726 177.832C130.088 174.939 131.449 172.386 135.023 172.897C137.406 173.237 139.789 174.258 142.001 174.768C142.172 175.109 130.768 165.579 127.535 169.323Z" fill="#D3DDF8"/>
<path d="M352.876 97.3395C336.027 84.5764 325.985 73.0046 321.9 67.8994V0H317.646V67.8994C313.561 73.0046 303.519 84.5764 286.669 97.3395H311.178C311.178 101.934 314.922 105.678 319.518 105.678C324.113 105.678 327.857 101.934 327.857 97.3395H352.876Z" fill="#E0E0E0"/>
<path d="M568.687 180.214H368.364C364.96 180.214 362.237 177.491 362.237 174.088V34.2049C362.237 30.8014 364.96 28.0786 368.364 28.0786H568.687C572.091 28.0786 574.814 30.8014 574.814 34.2049V174.088C574.644 177.491 571.921 180.214 568.687 180.214Z" fill="#BDBDBD"/>
<path d="M555.922 170.514H381.129C378.236 170.514 375.853 168.132 375.853 165.239V43.0538C375.853 40.1609 378.236 37.7784 381.129 37.7784H555.922C558.815 37.7784 561.198 40.1609 561.198 43.0538V165.239C561.198 168.132 558.815 170.514 555.922 170.514Z" fill="#E0E0E0"/>
<path d="M537.224 66.9931L488.617 71.8099L494.643 132.603L543.25 127.786L537.224 66.9931Z" fill="white"/>
<path d="M483.763 102.868L436.308 91.2976L421.833 150.649L469.288 162.219L483.763 102.868Z" fill="white"/>
<path d="M516.096 76.7483C516.096 74.7062 514.564 73.1747 512.522 73.1747C510.48 73.1747 508.948 74.7062 508.948 76.7483C508.948 78.7904 510.48 80.322 512.522 80.322C514.564 80.322 516.096 78.7904 516.096 76.7483Z" fill="#FF0400"/>
<path d="M462.484 103.295C462.484 101.253 460.952 99.7217 458.91 99.7217C456.867 99.7217 455.336 101.253 455.336 103.295C455.336 105.338 456.867 106.869 458.91 106.869C460.952 106.869 462.484 105.167 462.484 103.295Z" fill="#FE7E00"/>
<path d="M439.031 109.995L438.626 111.648L473.011 120.068L473.416 118.416L439.031 109.995Z" fill="#FE7E00"/>
<path d="M436.815 116.456L436.41 118.109L470.796 126.529L471.201 124.876L436.815 116.456Z" fill="#FE7E00"/>
<path d="M434.694 123.045L434.289 124.698L468.674 133.115L469.079 131.462L434.694 123.045Z" fill="#FE7E00"/>
<path d="M430.523 136.254L430.118 137.907L464.503 146.328L464.908 144.675L430.523 136.254Z" fill="#FE7E00"/>
<path d="M428.244 142.945L427.839 144.598L462.224 153.015L462.629 151.363L428.244 142.945Z" fill="#FE7E00"/>
<path d="M532.876 86L497.5 89.738L497.679 91.4304L533.055 87.6924L532.876 86Z" fill="#FF0400"/>
<path d="M532.911 91.2794L497.535 95.021L497.714 96.7134L533.09 92.9718L532.911 91.2794Z" fill="#FF0400"/>
<path d="M534.435 111.374L499.06 115.116L499.239 116.808L534.614 113.067L534.435 111.374Z" fill="#FF0400"/>
<path d="M535.453 116.172L500.077 119.914L500.256 121.606L535.632 117.864L535.453 116.172Z" fill="#FF0400"/>
<path d="M425.328 97.304L396.341 101.396L400.696 132.233L429.683 128.141L425.328 97.304Z" fill="#FE7E00"/>
<path d="M482.353 51.7872L453.644 46.062L447.552 76.6028L476.261 82.328L482.353 51.7872Z" fill="#FF0400"/>
<path d="M75.6237 227.182C74.2621 226.331 73.0707 225.31 72.2197 224.289C70.6879 222.757 68.3053 220.205 68.3053 217.993C68.3053 216.121 70.3476 215.61 71.7092 216.801C72.9006 217.822 73.4112 219.354 74.2622 220.545C75.4536 222.077 77.3258 223.268 79.198 223.949C81.7509 220.205 82.2614 215.1 81.4104 210.675C80.3892 205.57 76.9853 198.252 71.8794 191.445C71.1986 193.317 70.3476 195.019 69.4966 196.21C68.4754 197.742 66.9436 200.805 65.2416 201.486C63.3694 202.166 62.8589 200.465 63.1993 198.933V198.763C63.1993 198.593 63.1993 198.423 63.3695 198.423C63.3695 198.252 63.5396 198.252 63.5396 198.082C64.5608 196.04 65.7523 193.998 66.7734 191.956C67.4542 190.424 67.9649 188.723 68.3053 187.191C63.8801 182.256 58.6039 177.831 52.6469 175.279C53.8383 177.831 54.6895 180.554 55.3703 183.107C56.2213 185.659 58.2636 191.105 56.3914 193.487C55.8808 194.168 54.6894 194.679 54.0086 194.168C52.647 193.487 52.8173 190.595 52.8173 189.403C52.8173 186.34 52.8171 183.788 51.7959 180.724C50.945 178.172 49.5835 175.96 48.0517 173.747C44.3073 172.896 40.3927 172.726 36.4781 173.747C37.6695 174.768 38.5205 176.13 38.8609 177.661C39.0311 179.023 38.1802 182.256 36.308 182.426C33.9252 182.596 33.7551 176.981 33.4147 174.768C31.2021 175.619 28.9895 176.64 26.7769 178.172C23.0326 180.724 20.1393 183.958 17.9267 187.531C17.9267 187.531 17.9267 187.702 18.0969 187.702C18.9479 193.828 26.7769 196.04 31.3722 198.423C32.904 199.103 38.1803 201.656 37.4995 203.868C37.1591 205.059 35.1167 205.059 34.2657 204.889C31.8829 204.379 29.8404 202.507 27.9682 201.145C23.7133 197.912 19.6287 194.679 16.2247 190.765C12.3102 198.933 11.4591 208.463 11.6293 215.44C11.7995 215.44 11.9698 215.44 11.9698 215.44C14.693 216.631 17.7565 217.142 20.6499 216.801C22.522 216.631 24.3941 216.121 26.2663 216.461C27.798 216.631 30.3511 218.673 28.4789 220.205C26.9471 221.566 23.5432 221.226 21.671 221.056C17.9266 220.545 14.6929 219.354 11.4591 217.822C11.6293 219.864 11.7996 221.566 11.9698 222.928C12.991 229.735 17.2458 236.031 22.8623 239.775C24.7345 240.966 26.9472 241.987 28.9896 242.838C33.2445 239.264 36.4783 235.18 38.3505 229.564C39.0313 227.352 40.7332 221.226 43.7967 221.566C45.1583 221.736 46.1795 223.438 46.3497 224.629C46.8603 226.671 45.4987 228.714 44.4776 230.415C42.7756 232.798 40.9034 235.01 39.3716 237.392C37.8398 239.775 36.1378 241.987 34.4358 244.199C38.5206 244.71 42.6053 244.37 46.3497 243.178C52.3066 241.306 58.604 235.01 55.3703 228.543C62.008 229.735 70.0071 230.585 75.6237 227.182ZM22.522 210.165C22.3518 210.165 22.3519 210.165 22.1817 210.165C22.0115 210.335 21.671 210.505 21.5008 210.165C21.5008 210.165 21.3307 209.994 21.3307 209.824C20.6499 209.484 20.3094 208.633 20.1392 207.782C20.1392 207.612 20.1392 207.442 20.1392 207.442C19.969 207.101 19.969 206.591 19.969 206.251C19.969 205.229 20.4797 204.208 21.5008 204.379C22.6922 204.549 24.0538 205.91 24.0538 207.101C24.224 208.463 23.7134 209.824 22.522 210.165ZM61.8377 211.696C61.1569 212.547 59.9655 212.717 59.2847 211.866C58.4337 211.015 58.2635 209.824 58.4337 208.803C58.4337 208.633 58.604 208.463 58.7742 208.463C59.7954 208.122 60.9867 208.122 61.8377 208.803C62.8589 209.484 62.6887 210.845 61.8377 211.696Z" fill="#121212"/>
<path d="M127.024 191.786C130.257 192.977 133.661 193.828 137.235 194.338C139.108 187.702 138.937 180.554 138.086 173.577C135.704 176.13 132.98 178.172 129.747 179.703C127.024 181.065 122.258 183.107 119.705 180.214C119.535 180.044 119.535 179.703 119.705 179.533C122.428 177.321 126.002 177.491 129.066 176.47C132.3 175.449 135.533 173.407 137.746 170.684C137.746 170.174 137.576 169.493 137.576 168.983C136.895 163.877 136.044 158.772 135.023 153.837C135.023 154.007 134.853 154.007 134.853 154.177C134.342 155.028 133.661 156.9 132.47 157.07C131.449 157.241 130.938 156.049 131.279 155.198C131.619 154.007 132.81 152.986 133.321 151.625C133.661 150.944 133.831 150.093 134.172 149.413C133.321 145.499 132.47 141.414 131.449 137.5C131.449 137.16 131.108 137.16 130.768 137.16C126.853 137.671 122.769 138.181 118.854 138.862C114.429 143.116 111.365 148.221 110.855 154.348C110.685 156.049 111.876 165.409 107.621 164.388C103.196 163.197 105.238 154.858 106.089 151.965C107.451 147.541 109.663 143.627 112.387 140.053C103.366 141.755 94.5157 144.307 86.3462 148.732C83.2826 155.198 83.7933 161.835 87.7079 167.962C88.5588 169.323 93.6648 175.619 89.58 176.47C86.176 176.981 83.4528 170.344 82.9422 167.791C82.0912 164.048 82.6019 160.134 82.7721 156.39C82.9423 154.177 83.2826 151.965 83.9634 149.923C83.7932 149.923 83.7933 150.093 83.6231 150.093C77.4959 153.667 71.7092 158.432 69.8371 165.579C68.9861 168.812 68.986 172.046 69.3264 175.279C70.8582 177.661 72.5601 179.874 74.6025 181.746C76.6449 183.788 79.0277 184.639 81.2402 186.17C82.9422 187.191 85.6653 190.765 83.2825 192.467C81.2402 193.828 77.666 192.126 75.6236 191.275C74.7726 190.935 74.092 190.595 73.4112 190.254C73.0708 209.654 90.0905 199.614 90.0905 199.784C89.9203 217.652 108.132 217.822 119.365 213.568C118.173 213.398 117.152 213.228 115.961 212.887C113.748 212.547 111.536 212.377 109.323 212.037C106.94 211.526 103.536 209.994 104.047 206.931C104.557 204.209 107.961 206.421 109.153 207.101C113.578 209.484 118.514 211.696 123.62 211.526C124.13 211.186 124.641 210.845 125.151 210.505C129.066 207.782 132.3 204.209 134.512 199.954C130.257 199.784 125.832 199.614 121.577 198.763C118.514 198.252 113.578 197.402 112.046 194.168C111.876 193.828 112.046 193.488 112.557 193.488C116.301 193.147 119.875 194.168 123.109 195.87C127.024 197.912 131.108 198.763 135.363 198.252C135.874 197.231 136.384 196.21 136.725 195.019V194.849C133.321 194.509 129.917 193.658 126.683 192.296C126.172 192.467 126.513 191.446 127.024 191.786ZM120.386 155.198C120.386 155.028 120.556 154.858 120.556 154.858C120.726 154.007 121.237 153.327 122.258 153.156C124.641 152.816 126.343 155.539 124.3 157.241C123.62 157.921 122.428 158.262 121.407 157.921C120.386 157.581 120.216 156.22 120.386 155.198ZM98.4302 202.847C97.7494 203.528 96.7282 203.528 96.0474 203.017C95.707 202.847 95.8774 202.507 96.2178 202.337C96.2178 201.656 96.3878 200.975 96.8984 200.465C97.5792 199.784 98.6005 199.954 99.1111 200.805C99.4514 201.486 99.111 202.337 98.4302 202.847ZM100.473 164.728C100.303 165.919 99.7918 167.621 98.6004 168.302C97.2388 168.983 96.5581 167.281 96.3879 166.26V166.09C95.7071 164.898 95.5369 163.537 95.5369 162.346C95.7071 160.474 97.5793 160.134 98.9409 160.984C100.473 161.495 100.813 163.197 100.473 164.728ZM113.918 183.618C113.237 184.298 112.216 184.468 111.365 184.128C110.344 183.618 109.834 182.596 110.004 181.405C110.004 181.065 110.514 180.895 110.855 180.895C111.536 180.044 112.557 179.874 113.408 180.725C114.089 181.235 114.599 182.767 113.918 183.618Z" fill="#FE7E00"/>
<path d="M16.3951 269.215C14.523 270.406 12.4807 271.257 10.2681 271.938C8.22574 267.854 7.71503 263.089 7.37463 258.494C9.2468 259.855 11.119 260.876 13.3315 261.557C15.2037 262.068 18.4376 262.919 19.6289 260.876C19.6289 260.706 19.6289 260.536 19.6289 260.366C17.7568 259.175 15.5441 259.685 13.3315 259.515C11.2892 259.175 8.90644 258.154 7.20448 256.622C7.20448 256.282 7.20448 255.941 7.20448 255.431C7.03428 252.027 7.03432 248.624 7.03432 245.22C7.03432 245.22 7.03428 245.391 7.20448 245.391C7.54487 245.901 8.22562 247.092 9.0766 247.092C9.75739 247.092 9.92767 246.242 9.58727 245.731C9.24688 244.88 8.3959 244.37 7.88531 243.689C7.54491 243.178 7.37467 242.838 7.20448 242.328C7.20448 239.605 7.37459 236.882 7.54479 234.159C7.54479 233.989 7.71511 233.819 7.88531 233.819C10.4383 233.819 12.9912 233.649 15.5442 233.649C18.7779 236.031 21.3309 238.924 22.352 243.008C22.6924 244.199 23.0329 250.326 25.5858 249.135C28.309 247.773 25.9261 242.668 25.0751 240.796C23.7136 238.073 21.8415 235.691 19.6289 233.649C25.4156 233.819 31.3725 234.5 36.8188 236.371C39.5419 240.285 40.0524 244.54 38.1802 249.135C37.8398 250.156 35.4571 254.92 38.0101 254.92C40.2226 254.92 41.0737 250.326 41.2439 248.624C41.414 246.071 40.5631 243.689 40.0526 241.136C39.7122 239.605 39.2015 238.243 38.5207 237.052H38.6909C42.9458 238.754 47.2007 241.136 49.0729 245.731C49.9239 247.773 50.4345 249.815 50.6047 252.027C49.9239 253.729 49.0729 255.431 48.0517 256.792C47.0305 258.324 45.669 259.175 44.4776 260.536C43.6266 261.387 42.265 263.94 43.967 264.961C45.3285 265.641 47.5412 264.11 48.5624 263.429C49.073 263.089 49.4133 262.748 49.9239 262.578C52.3066 275.341 40.563 270.576 40.563 270.576C42.7756 282.148 31.3725 284.36 23.8839 282.829C24.5646 282.489 25.2453 282.318 25.9261 281.978C27.2877 281.467 28.6493 281.127 30.0109 280.617C31.5427 280.106 33.4148 278.745 32.734 276.703C32.2234 275.001 30.181 276.873 29.5002 277.383C27.1175 279.425 24.2241 281.467 20.9904 281.808C20.65 281.638 20.3097 281.467 19.7991 281.297C17.0759 279.936 14.6931 277.894 12.6507 275.511C15.3738 275.001 17.9269 274.32 20.6501 273.299C22.5222 272.618 25.4155 271.597 26.0963 269.215C26.0963 269.045 25.9262 268.704 25.756 268.704C23.3732 268.875 21.3307 270.066 19.4586 271.427C17.246 273.129 14.8634 274.32 12.1402 274.32C11.6296 273.639 11.2891 273.129 10.9487 272.448C10.9487 272.448 10.9487 272.448 10.9487 272.278C12.9911 271.597 15.0334 270.747 16.9056 269.555C17.0758 269.555 16.7355 269.045 16.3951 269.215ZM16.3951 244.54C16.3951 244.37 16.225 244.37 16.225 244.37C16.0548 243.859 15.5441 243.519 15.0335 243.519C13.5017 243.519 12.8209 245.561 14.1825 246.412C14.6931 246.752 15.544 246.922 16.0546 246.582C16.7354 246.071 16.5653 245.22 16.3951 244.54ZM35.6273 273.299C36.1379 273.639 36.8187 273.639 37.1591 273.129C37.3293 272.959 37.1591 272.789 36.9889 272.618C36.9889 272.108 36.6485 271.768 36.3081 271.427C35.7975 271.087 35.1168 271.257 34.9467 271.938C34.7765 272.448 35.1167 273.129 35.6273 273.299ZM29.8407 248.454C30.1811 249.134 30.6917 250.326 31.5427 250.496C32.5639 250.836 32.734 249.645 32.5639 248.794V248.624C32.734 247.773 32.9042 246.922 32.5639 246.071C32.2235 244.88 31.032 244.88 30.1811 245.561C29.5003 246.412 29.5004 247.603 29.8407 248.454ZM23.7135 262.408C24.2241 262.748 24.9049 262.748 25.2453 262.408C25.9261 261.898 25.9262 261.217 25.756 260.536C25.756 260.196 25.4155 260.196 25.2453 260.366C24.7347 259.855 24.0539 259.855 23.5433 260.536C23.3731 260.876 23.2029 261.898 23.7135 262.408Z" fill="#FF0400"/>
<path d="M150.001 237.222C148.809 237.222 147.618 237.052 146.427 237.052C144.044 236.882 140.64 237.222 138.597 235.52C138.427 235.35 138.257 234.84 138.597 234.67C142.342 231.436 146.426 235.01 150.511 235.18C151.022 232.117 151.022 228.884 150.681 226.161C150.511 223.778 150.001 221.736 149.15 219.694C146.937 222.757 144.895 225.991 142.001 228.373C140.81 229.394 137.746 232.117 136.215 230.926C134.513 229.735 137.406 227.692 138.427 227.012C142.171 224.459 145.746 222.077 148.639 218.503C147.277 215.61 145.065 213.228 141.831 211.696C139.619 210.675 137.236 209.824 134.853 209.314C135.364 213.058 134.853 218.673 131.279 219.694C128.896 220.375 127.194 217.482 127.194 215.27C127.024 212.717 128.726 210.335 130.768 208.803C127.024 208.463 123.28 208.463 119.705 208.633C119.025 208.633 118.344 208.803 117.663 208.803V208.973C115.961 212.377 113.919 216.291 113.578 220.205C113.408 221.566 114.089 223.608 113.238 224.97C112.047 227.182 109.834 225.31 109.493 223.608C108.813 220.375 110.344 216.461 111.366 213.568C111.706 212.377 112.217 211.015 112.727 209.654C108.302 210.505 103.877 212.207 100.133 214.759C98.771 215.61 97.7499 216.631 96.5585 217.822C96.0479 221.736 96.2181 225.48 97.5797 229.054C98.6008 231.606 101.494 236.201 98.6008 238.754C96.7286 240.455 95.5372 237.052 95.1968 235.691C94.0055 231.266 93.4949 226.501 93.1546 221.736C91.2824 224.459 89.7507 227.692 88.5593 230.756C87.3679 233.989 86.3466 237.222 85.6658 240.455C88.0486 242.157 90.7717 242.838 93.3247 244.199C94.5161 244.88 96.8989 246.241 95.7075 248.113C93.3247 251.857 88.0485 247.603 84.985 244.369C84.8148 247.433 85.6659 249.815 87.8785 252.027C92.4738 256.792 99.6221 258.324 105.068 254.069C104.898 259.515 108.983 264.11 114.429 263.429C116.301 263.089 118.003 262.238 119.365 260.876C118.174 261.047 116.812 261.047 115.621 261.047C113.919 261.047 111.196 260.876 110.685 259.004C110.004 257.132 111.706 257.133 112.897 257.473C114.429 257.983 115.28 258.834 116.982 258.834C118.854 258.834 120.727 258.324 122.428 257.643C124.471 255.261 126.343 253.048 129.236 251.517C130.258 251.006 131.449 250.496 132.64 249.985C130.428 249.815 127.024 249.305 126.343 247.262C125.152 243.859 130.258 243.519 132.13 243.859C134.513 244.199 136.725 245.05 139.108 245.22C141.15 245.391 143.193 245.05 145.065 244.54C145.405 244.199 145.916 244.029 146.256 243.689C148.128 241.987 149.32 239.775 150.001 237.222ZM107.451 239.775C106.43 239.775 105.919 238.413 105.749 237.563C105.579 236.712 105.749 235.691 106.26 234.84V234.67C106.43 233.989 106.941 233.138 107.621 232.968C108.132 232.798 108.643 233.138 108.983 233.478C109.834 234.329 110.174 235.861 109.834 237.052C109.664 238.073 108.643 239.775 107.451 239.775ZM120.727 227.012C120.216 225.821 120.556 224.459 121.577 223.608C121.748 223.608 121.748 223.438 121.918 223.438C122.939 222.757 123.96 222.928 124.471 224.119C125.152 225.31 124.641 226.842 123.45 227.692C122.429 228.373 121.237 228.033 120.727 227.012ZM118.684 251.176C118.003 252.197 116.472 252.708 115.621 251.857C114.94 251.176 114.94 249.985 115.28 248.964C115.11 248.794 115.11 248.454 115.28 248.283C117.152 246.582 120.046 248.964 118.684 251.176Z" fill="#121212"/>
<path d="M114.088 244.199C105.749 250.836 98.7707 259.345 94.1754 268.875C89.0695 279.255 88.0483 291.167 82.0915 301.208C81.4107 302.229 83.1127 303.25 83.6233 302.229C89.41 292.699 90.6012 281.468 95.1965 271.257C99.7918 261.047 106.77 252.368 115.45 245.561C116.301 244.88 115.11 243.519 114.088 244.199Z" fill="#0C1540"/>
<path d="M96.2183 190.084C90.7719 197.572 88.0486 206.08 85.836 214.929C82.9427 225.31 80.2195 235.691 78.007 246.241C73.5818 266.322 71.1992 286.743 74.0925 307.164C74.2627 308.355 76.1349 307.844 75.9647 306.653C72.9011 286.062 75.6243 265.131 80.2196 245.05C82.262 235.691 84.8149 226.331 87.3678 216.971C89.7506 207.952 92.4739 198.763 98.0904 191.105C98.4308 190.084 96.8991 189.063 96.2183 190.084Z" fill="#0C1540"/>
<path d="M53.6685 222.417C53.1579 221.396 51.4559 222.247 51.9665 223.438C64.7314 249.475 65.4122 279.085 65.7526 307.504C65.7526 308.695 67.6247 308.695 67.6247 307.504C67.2843 278.574 66.6036 248.794 53.6685 222.417Z" fill="#0C1540"/>
<path d="M66.6036 311.758C57.0724 293.379 45.8392 276.022 32.9041 259.855C32.2233 258.834 30.6917 260.196 31.5426 261.047C44.3076 277.043 55.5406 294.401 64.9016 312.609C65.5824 313.63 67.2844 312.949 66.6036 311.758Z" fill="#0C1540"/>
<path d="M102.345 286.573L100.983 299.336L98.2602 322.139L92.3033 371.83H49.0731L43.2863 322.139L40.5632 299.336L39.0314 286.573H102.345Z" fill="url(#paint0_linear)"/>
<path opacity="0.08" d="M57.0724 299.336L55.5406 286.573H39.0314L40.5632 299.336L43.2863 322.139L49.073 371.83H65.5822L59.7955 322.139L57.0724 299.336Z" fill="black"/>
<path opacity="0.64" d="M87.1972 367.746H87.027C85.8356 367.746 85.1549 366.895 85.1549 365.874L92.6434 290.146C92.8136 289.125 93.6647 288.445 94.8561 288.615C96.0475 288.615 96.7282 289.466 96.7282 290.487L89.2395 366.214C89.2395 367.065 88.2184 367.746 87.1972 367.746Z" fill="white"/>
<path d="M557.284 369.958C556.093 369.958 555.071 368.937 555.071 367.746V100.913C555.071 99.7219 556.093 98.7008 557.284 98.7008C558.475 98.7008 559.497 99.7219 559.497 100.913V367.746C559.327 368.937 558.475 369.958 557.284 369.958Z" fill="#121212"/>
<path d="M558.986 369.958C557.795 369.958 556.774 368.937 556.774 367.746V100.913C556.774 99.7219 557.795 98.7008 558.986 98.7008C560.177 98.7008 561.198 99.7219 561.198 100.913V367.746C561.028 368.937 560.007 369.958 558.986 369.958Z" fill="url(#paint1_linear)"/>
<path d="M578.729 80.3221H535.839L523.585 128.822C523.585 129.843 538.732 130.694 557.284 130.694C575.836 130.694 590.983 129.843 590.983 128.822L578.729 80.3221Z" fill="url(#paint2_linear)"/>
<path d="M557.284 81.8536C569.128 81.8536 578.729 81.1679 578.729 80.3221C578.729 79.4762 569.128 78.7905 557.284 78.7905C545.44 78.7905 535.839 79.4762 535.839 80.3221C535.839 81.1679 545.44 81.8536 557.284 81.8536Z" fill="#121212"/>
<path d="M606.471 371.83H508.097C508.097 368.086 511.16 365.193 514.734 365.193H599.833C603.407 365.193 606.471 368.086 606.471 371.83Z" fill="url(#paint3_linear)"/>
<path d="M288.542 56.4977H226.93C221.994 56.4977 218.08 60.4117 218.08 65.3467V99.0411C218.08 103.976 221.994 107.89 226.93 107.89H265.395L274.756 120.483C275.777 121.844 277.819 121.164 277.819 119.462V107.89H288.371C293.307 107.89 297.222 103.976 297.222 99.0411V65.3467C297.392 60.4117 293.478 56.4977 288.542 56.4977Z" fill="white"/>
<path fill-rule="evenodd" clip-rule="evenodd" d="M262.974 84.4556L260.31 82.878L259.914 83.1102L259.619 83.2858L259.193 83.5351L257.994 84.2431L257.437 84.5773L257.337 84.6368L247.684 90.3013V87.5965L245.005 89.1684V95L247.009 93.8275L256.88 88.0298L257.437 87.7013L257.994 87.3699L260.658 85.8065L262.57 84.6736L262.963 84.4442L262.974 84.4556ZM268.322 90.2956L263.336 87.3699L260.67 88.9362L268.996 93.8218L271 94.9943V76.6244L270.331 76.2336L264.501 72.8122L258.674 69.3937L257.994 69L257.326 69.3937L251.496 72.8122L245.669 76.2336L245 76.6244V86.0275L247.678 84.4584L252.836 81.4307L257.994 78.403L259.775 79.4481L262.969 81.3231L265.635 82.8865L268.311 84.4584V90.2956H268.322ZM251.507 79.0828L247.684 81.3231V78.1878L252.842 75.163L257.994 72.1353L263.153 75.163L268.311 78.1878V81.3231L264.49 79.0828L258.663 75.6614L257.994 75.2678L257.326 75.6614L251.507 79.0828Z" fill="url(#paint4_linear)"/>
<path d="M404.617 210.505C407.17 208.293 410.744 210.165 412.616 211.526C413.467 212.037 414.148 212.717 414.148 212.717L412.786 214.249C412.786 214.249 412.616 214.079 412.446 214.079C412.446 214.079 412.105 213.738 411.425 213.228C411.084 212.887 410.574 212.717 410.063 212.377C408.361 211.526 407 211.526 406.149 212.207C405.808 212.547 405.468 213.908 405.978 215.951C406.489 217.993 407.34 220.205 408.531 221.907C409.042 222.587 409.552 223.268 410.403 223.949C411.084 224.459 411.935 224.629 412.786 224.289L413.978 226.331C413.467 226.671 412.786 226.842 412.105 226.842C411.084 226.842 410.233 226.501 409.212 225.821C408.191 225.14 407.34 224.289 406.489 223.098C404.276 219.354 402.234 212.717 404.617 210.505Z" fill="url(#paint5_linear)"/>
<path d="M438.316 206.931L436.103 230.756C436.103 231.777 429.976 232.798 424.359 232.798C418.913 232.798 412.445 231.947 412.445 230.756L410.573 206.931H438.316Z" fill="url(#paint6_linear)"/>
<path d="M410.574 206.931C410.574 208.123 416.871 208.973 424.53 208.973C432.189 208.973 438.487 207.952 438.487 206.931C438.487 205.74 432.189 204.889 424.53 204.889C416.871 204.889 410.574 205.91 410.574 206.931Z" fill="url(#paint7_linear)"/>
<path d="M411.594 206.931C411.594 207.101 412.105 207.442 412.956 207.612C414.998 208.122 419.423 208.463 424.529 208.463C429.635 208.463 434.061 208.122 436.103 207.612C436.954 207.442 437.465 207.101 437.465 206.931C437.465 206.08 431.678 205.4 424.529 205.4C417.381 205.4 411.594 206.08 411.594 206.931Z" fill="url(#paint8_linear)"/>
<path d="M412.956 207.612C414.999 208.123 419.424 208.463 424.53 208.463C429.636 208.463 434.061 208.123 436.103 207.612C434.061 207.101 429.636 206.761 424.53 206.761C419.424 206.761 414.999 207.101 412.956 207.612Z" fill="#0C1540"/>
<path opacity="0.22" d="M428.614 232.628C430.316 232.457 431.848 232.287 433.21 232.117L435.252 208.463C433.72 208.803 431.678 208.973 429.295 209.144L428.614 232.628Z" fill="#F0F5FF"/>
<path opacity="0.22" d="M425.721 232.798C426.232 232.798 426.742 232.798 427.253 232.798L427.933 209.144C427.423 209.144 426.913 209.144 426.402 209.144L425.721 232.798Z" fill="#F0F5FF"/>
<path d="M380.34 370.608H461.524V237.362H380.34V370.608Z" fill="#BDBDBD"/>
<path d="M329.799 370.608H394.984V237.362H329.799V370.608Z" fill="#828282"/>
<path d="M329.808 245.873L461.542 245.873V237.364L329.808 237.364V245.873Z" fill="#333333"/>
<path d="M170.481 370.608H177.119L177.119 237.362H170.481L170.481 370.608Z" fill="#121212"/>
<path d="M178.934 237.223H177.062V370.469H178.934V237.223Z" fill="#333333"/>
<path d="M165.659 238.635L474.397 238.635V230.637L165.659 230.637V238.635Z" fill="#828282"/>
<path d="M165.671 238.635H252.813V230.637H165.671V238.635Z" fill="#121212"/>
<path d="M402.914 275.342H453.463C455.676 275.342 457.378 273.64 457.378 271.428V254.07C457.378 251.858 455.676 250.156 453.463 250.156H402.914C400.702 250.156 399 251.858 399 254.07V271.428C399 273.64 400.702 275.342 402.914 275.342Z" fill="#E0E0E0"/>
<path d="M401.042 254.58V271.087C401.042 272.619 402.233 273.81 403.765 273.81H452.612C454.143 273.81 455.335 272.619 455.335 271.087V254.58C455.335 254.07 455.165 253.559 454.995 253.219C454.484 252.368 453.633 251.858 452.612 251.858H403.765C402.744 251.858 401.893 252.368 401.382 253.219C401.042 253.559 401.042 254.07 401.042 254.58Z" fill="#BDBDBD"/>
<path opacity="0.36" d="M401.382 253.219H454.995C454.484 252.368 453.633 251.858 452.612 251.858H403.765C402.744 251.858 401.893 252.368 401.382 253.219Z" fill="#121212"/>
<path d="M425.551 263.429C425.551 262.068 426.742 260.877 428.104 260.877C429.465 260.877 430.657 262.068 430.657 263.429C430.657 264.791 429.465 265.982 428.104 265.982C426.742 265.982 425.551 264.791 425.551 263.429Z" fill="#E2E9FB"/>
<path d="M402.914 307.674H453.463C455.676 307.674 457.378 305.973 457.378 303.76V286.403C457.378 284.19 455.676 282.489 453.463 282.489H402.914C400.702 282.489 399 284.19 399 286.403V303.76C399 305.973 400.702 307.674 402.914 307.674Z" fill="#E0E0E0"/>
<path d="M401.042 286.913V303.42C401.042 304.952 402.233 306.143 403.765 306.143H452.612C454.143 306.143 455.335 304.952 455.335 303.42V286.913C455.335 286.403 455.165 285.892 454.995 285.552C454.484 284.701 453.633 284.19 452.612 284.19H403.765C402.744 284.19 401.893 284.701 401.382 285.552C401.042 285.892 401.042 286.403 401.042 286.913Z" fill="#BDBDBD"/>
<path opacity="0.36" d="M401.382 285.552H454.995C454.484 284.701 453.633 284.19 452.612 284.19H403.765C402.744 284.19 401.893 284.701 401.382 285.552Z" fill="#121212"/>
<path d="M425.551 295.592C425.551 294.231 426.742 293.039 428.104 293.039C429.465 293.039 430.657 294.231 430.657 295.592C430.657 296.953 429.465 298.145 428.104 298.145C426.742 298.145 425.551 297.123 425.551 295.592Z" fill="#E2E9FB"/>
<path d="M402.914 340.007H453.463C455.676 340.007 457.378 338.306 457.378 336.093V318.736C457.378 316.523 455.676 314.822 453.463 314.822H402.914C400.702 314.822 399 316.523 399 318.736V336.093C399 338.136 400.702 340.007 402.914 340.007Z" fill="#E0E0E0"/>
<path d="M401.042 319.076V335.583C401.042 337.115 402.233 338.306 403.765 338.306H452.612C454.143 338.306 455.335 337.115 455.335 335.583V319.076C455.335 318.566 455.165 318.055 454.995 317.715C454.484 316.864 453.633 316.353 452.612 316.353H403.765C402.744 316.353 401.893 316.864 401.382 317.715C401.042 318.225 401.042 318.736 401.042 319.076Z" fill="#BDBDBD"/>
<path opacity="0.36" d="M401.382 317.715H454.995C454.484 316.864 453.633 316.353 452.612 316.353H403.765C402.744 316.353 401.893 317.034 401.382 317.715Z" fill="#121212"/>
<path d="M425.551 327.925C425.551 326.564 426.742 325.372 428.104 325.372C429.465 325.372 430.657 326.564 430.657 327.925C430.657 329.287 429.465 330.478 428.104 330.478C426.742 330.478 425.551 329.287 425.551 327.925Z" fill="#E2E9FB"/>
<path d="M254.331 172.726H231.355V230.586H254.331V172.726Z" fill="#121212"/>
<path d="M259.098 172.726H236.121V230.586H259.098V172.726Z" fill="#333333"/>
<path d="M269.99 224.629H207.187V230.586H269.99V224.629Z" fill="#121212"/>
<path d="M283.265 224.629H216.718V230.586H283.265V224.629Z" fill="#333333"/>
<path d="M198.847 206.421H290.414C291.946 206.421 293.137 205.23 293.137 203.698V141.415C293.137 139.883 291.946 138.692 290.414 138.692H198.847C197.316 138.692 196.124 139.883 196.124 141.415V203.698C196.124 205.23 197.486 206.421 198.847 206.421Z" fill="#121212"/>
<path d="M201.911 206.421H293.477C295.008 206.421 296.2 205.23 296.2 203.698V141.415C296.2 139.883 295.008 138.692 293.477 138.692H201.911C200.379 138.692 199.187 139.883 199.187 141.415V203.698C199.187 205.23 200.379 206.421 201.911 206.421Z" fill="#333333"/>
<path d="M205.995 203.358H289.393C290.754 203.358 291.946 202.337 291.946 200.805V144.137C291.946 142.776 290.754 141.585 289.393 141.585H205.995C204.634 141.585 203.442 142.776 203.442 144.137V200.805C203.442 202.337 204.634 203.358 205.995 203.358Z" fill="#121212"/>
<path d="M229.994 154.348H250.588C250.758 154.348 250.928 154.177 250.928 154.007C250.928 153.837 250.758 153.667 250.588 153.667H229.994C229.823 153.667 229.653 153.837 229.653 154.007C229.653 154.177 229.823 154.348 229.994 154.348Z" fill="#E2E9FB"/>
<path d="M256.715 154.348H274.075C274.245 154.348 274.415 154.177 274.415 154.007C274.415 153.837 274.245 153.667 274.075 153.667H256.715C256.545 153.667 256.375 153.837 256.375 154.007C256.375 154.177 256.545 154.348 256.715 154.348Z" fill="#E2E9FB"/>
<path d="M227.271 178.172H261.991C262.161 178.172 262.331 178.002 262.331 177.832C262.331 177.662 262.161 177.491 261.991 177.491H227.271C227.101 177.491 226.93 177.662 226.93 177.832C226.93 178.002 227.101 178.172 227.271 178.172Z" fill="#E2E9FB"/>
<path d="M268.288 178.172H271.351C271.522 178.172 271.692 178.002 271.692 177.832C271.692 177.662 271.522 177.491 271.351 177.491H268.288C268.118 177.491 267.947 177.662 267.947 177.832C267.947 178.002 268.118 178.172 268.288 178.172Z" fill="#E2E9FB"/>
<path d="M227.27 184.298H245.652C245.822 184.298 245.992 184.128 245.992 183.958C245.992 183.788 245.822 183.618 245.652 183.618H227.27C227.1 183.618 226.93 183.788 226.93 183.958C226.93 184.128 227.1 184.298 227.27 184.298Z" fill="#E2E9FB"/>
<path d="M251.269 184.298H271.352C271.522 184.298 271.693 184.128 271.693 183.958C271.693 183.788 271.522 183.618 271.352 183.618H251.269C251.098 183.618 250.928 183.788 250.928 183.958C250.928 184.128 251.098 184.298 251.269 184.298Z" fill="#E2E9FB"/>
<path d="M217.229 190.084H251.949C252.119 190.084 252.29 189.914 252.29 189.744C252.29 189.574 252.119 189.403 251.949 189.403H217.229C217.059 189.403 216.888 189.574 216.888 189.744C216.718 189.914 216.888 190.084 217.229 190.084Z" fill="#E2E9FB"/>
<path d="M258.076 190.084H261.14C261.31 190.084 261.48 189.914 261.48 189.744C261.48 189.574 261.31 189.404 261.14 189.404H258.076C257.906 189.404 257.736 189.574 257.736 189.744C257.736 189.914 257.906 190.084 258.076 190.084Z" fill="#E2E9FB"/>
<path d="M217.228 196.04H235.61C235.78 196.04 235.95 195.87 235.95 195.7C235.95 195.53 235.78 195.36 235.61 195.36H217.228C217.058 195.36 216.888 195.53 216.888 195.7C216.888 195.87 216.888 196.04 217.228 196.04Z" fill="#E2E9FB"/>
<path d="M241.056 196.04H261.14C261.31 196.04 261.48 195.87 261.48 195.7C261.48 195.53 261.31 195.36 261.14 195.36H241.056C240.886 195.36 240.716 195.53 240.716 195.7C240.716 195.87 240.886 196.04 241.056 196.04Z" fill="#E2E9FB"/>
<path d="M224.378 160.134H255.524C255.694 160.134 255.864 159.964 255.864 159.793C255.864 159.623 255.694 159.453 255.524 159.453H224.378C224.207 159.453 224.037 159.623 224.037 159.793C224.037 159.964 224.207 160.134 224.378 160.134Z" fill="#E2E9FB"/>
<path d="M261.14 160.134H262.672C262.842 160.134 263.012 159.963 263.012 159.793C263.012 159.623 262.842 159.453 262.672 159.453H261.14C260.97 159.453 260.8 159.623 260.8 159.793C260.8 159.963 260.97 160.134 261.14 160.134Z" fill="#E2E9FB"/>
<path d="M224.377 165.749H240.886C241.057 165.749 241.227 165.579 241.227 165.409C241.227 165.239 241.057 165.069 240.886 165.069H224.377C224.207 165.069 224.037 165.239 224.037 165.409C224.037 165.579 224.207 165.749 224.377 165.749Z" fill="#E2E9FB"/>
<path d="M245.822 165.749H262.672C262.842 165.749 263.012 165.579 263.012 165.409C263.012 165.239 262.842 165.069 262.672 165.069H245.822C245.652 165.069 245.482 165.239 245.482 165.409C245.482 165.579 245.652 165.749 245.822 165.749Z" fill="#E2E9FB"/>
<path d="M215.186 161.665C215.527 161.665 215.867 161.495 216.038 161.325C216.208 161.155 216.378 160.984 216.548 160.474C216.548 160.304 216.718 159.623 216.718 158.772C216.718 158.091 216.718 157.581 216.889 157.241C216.889 156.9 217.059 156.56 217.399 156.39C217.569 156.219 217.91 156.049 218.25 155.879C218.591 155.709 219.101 155.709 219.612 155.709H219.952V157.411C219.442 157.411 219.101 157.411 218.931 157.581C218.761 157.581 218.761 157.751 218.591 157.921C218.591 158.091 218.42 158.262 218.42 158.602C218.42 159.623 218.421 160.304 218.25 160.644C218.25 161.155 218.08 161.495 217.74 161.835C217.569 162.005 217.399 162.176 217.059 162.516C217.399 162.686 217.569 162.856 217.74 163.026C217.91 163.197 218.08 163.537 218.08 163.707C218.25 164.047 218.25 164.388 218.25 164.898C218.25 165.749 218.25 166.26 218.25 166.43C218.25 166.77 218.25 166.94 218.42 166.94C218.42 167.111 218.591 167.111 218.761 167.281C218.931 167.281 219.272 167.451 219.782 167.451V169.153H219.442C218.931 169.153 218.421 169.153 218.08 168.982C217.74 168.812 217.399 168.642 217.229 168.472C217.059 168.302 216.889 167.961 216.718 167.621C216.718 167.281 216.548 166.6 216.548 165.749C216.548 165.239 216.548 164.898 216.548 164.558C216.548 164.218 216.378 164.047 216.378 163.877C216.208 163.707 216.038 163.537 215.867 163.537C215.697 163.537 215.527 163.367 215.186 163.367V161.665Z" fill="url(#paint9_linear)"/>
<path d="M286.159 152.476C285.818 152.476 285.648 152.476 285.478 152.646C285.308 152.646 285.138 152.816 284.967 152.986C284.797 153.156 284.797 153.497 284.797 153.667C284.797 153.837 284.797 154.177 284.797 154.858C284.797 155.709 284.797 156.39 284.627 156.73C284.627 157.07 284.457 157.411 284.116 157.581C283.946 157.751 283.606 157.921 283.265 158.091C282.925 158.091 282.585 158.262 281.904 158.262H281.563V156.56C282.074 156.56 282.414 156.56 282.585 156.39C282.755 156.39 282.925 156.22 282.925 156.049C282.925 155.879 283.095 155.709 283.095 155.539C283.095 155.198 283.095 154.688 283.095 154.007C283.095 153.497 283.095 153.156 283.265 152.816C283.435 152.476 283.436 152.306 283.606 152.135C283.776 151.965 283.946 151.795 284.287 151.625C283.946 151.455 283.776 151.114 283.606 150.944C283.436 150.604 283.265 150.263 283.095 149.753C283.095 149.413 282.925 148.732 282.925 147.711C282.925 147.37 282.925 147.2 282.755 147.03C282.755 146.86 282.584 146.86 282.414 146.69C282.244 146.69 281.904 146.52 281.393 146.52V144.818H281.734C282.414 144.818 282.755 144.818 283.095 144.988C283.435 145.158 283.776 145.158 283.946 145.499C284.116 145.669 284.287 146.009 284.457 146.349C284.457 146.69 284.627 147.2 284.627 147.881C284.627 148.732 284.627 149.242 284.797 149.583C284.967 149.923 284.967 150.263 285.308 150.434C285.478 150.604 285.818 150.604 286.159 150.774V152.476Z" fill="url(#paint10_linear)"/>
<path d="M209.059 191.616C209.399 191.616 209.74 191.446 209.91 191.275C210.08 191.105 210.251 190.935 210.421 190.425C210.421 190.084 210.591 189.574 210.591 188.723C210.591 188.042 210.591 187.532 210.761 187.191C210.761 186.851 210.931 186.511 211.272 186.34C211.442 186.17 211.782 186 212.123 185.83C212.463 185.66 212.973 185.66 213.484 185.66H213.825V187.361C213.314 187.361 212.974 187.361 212.803 187.532C212.633 187.532 212.633 187.702 212.463 187.872C212.463 188.042 212.293 188.212 212.293 188.553C212.293 189.574 212.293 190.254 212.123 190.595C212.123 191.105 211.952 191.446 211.612 191.786C211.442 191.956 211.272 192.126 210.931 192.467C211.272 192.637 211.442 192.807 211.612 192.977C211.782 193.147 211.952 193.488 211.952 193.658C212.123 193.998 212.123 194.338 212.123 194.849C212.123 195.7 212.123 196.21 212.123 196.381C212.123 196.721 212.123 196.891 212.293 196.891C212.293 197.061 212.463 197.061 212.633 197.231C212.803 197.231 213.144 197.402 213.654 197.402V199.103H213.314C212.803 199.103 212.293 199.103 211.952 198.933C211.612 198.763 211.272 198.593 211.102 198.423C210.931 198.252 210.761 197.912 210.591 197.572C210.591 197.231 210.421 196.551 210.421 195.7C210.421 195.189 210.421 194.849 210.421 194.509C210.421 194.168 210.251 193.998 210.251 193.828C210.08 193.658 209.91 193.488 209.74 193.488C209.57 193.488 209.399 193.317 209.059 193.317V191.616Z" fill="url(#paint11_linear)"/>
<path d="M279.521 181.575C279.181 181.575 279.01 181.575 278.84 181.746C278.67 181.746 278.5 181.916 278.33 182.086C278.159 182.256 278.159 182.596 278.159 182.767C278.159 182.937 278.159 183.277 278.159 183.958C278.159 184.809 278.159 185.489 277.989 185.83C277.989 186.17 277.819 186.51 277.479 186.681C277.308 186.851 276.968 187.021 276.628 187.191C276.287 187.191 275.947 187.361 275.266 187.361H274.926V185.66C275.436 185.66 275.777 185.66 275.947 185.489C276.117 185.489 276.287 185.319 276.287 185.149C276.287 184.979 276.457 184.809 276.457 184.639C276.457 184.298 276.457 183.788 276.457 183.107C276.457 182.596 276.457 182.256 276.628 181.916C276.798 181.575 276.798 181.405 276.968 181.235C277.138 181.065 277.308 180.895 277.649 180.725C277.308 180.554 277.138 180.214 276.968 180.044C276.798 179.704 276.628 179.363 276.457 178.853C276.457 178.512 276.287 177.832 276.287 176.811C276.287 176.47 276.287 176.3 276.117 176.13C275.947 175.96 275.947 175.96 275.777 175.79C275.606 175.79 275.266 175.619 274.755 175.619V173.918H275.096C275.777 173.918 276.117 173.918 276.457 174.088C276.798 174.258 277.138 174.258 277.308 174.598C277.479 174.768 277.649 175.109 277.819 175.449C277.819 175.79 277.989 176.3 277.989 176.981C277.989 177.832 277.989 178.342 278.159 178.682C278.33 179.023 278.33 179.363 278.67 179.533C278.84 179.703 279.181 179.704 279.521 179.874V181.575Z" fill="url(#paint12_linear)"/>
<path d="M313.901 346.304C312.029 345.453 308.625 335.242 308.625 335.242L297.732 342.39C300.966 350.558 302.328 357.025 299.775 363.151C299.264 364.512 291.605 366.214 291.435 367.235H308.625L316.284 355.493C316.114 355.663 321.73 350.047 313.901 346.304Z" fill="#FFE1BD"/>
<path d="M263.693 272.788C258.587 291.337 293.988 336.604 296.2 346.984C296.2 346.984 306.242 342.9 311.858 336.944C311.858 336.944 291.435 279.595 288.201 272.618C281.393 258.324 265.395 266.662 263.693 272.788Z" fill="#F5F8FF"/>
<path d="M319.347 350.388C319.347 350.388 314.071 345.283 313.22 344.942C312.369 344.602 305.391 351.749 300.455 351.239L299.604 360.088C299.604 360.088 291.265 362.13 290.243 366.044C290.243 366.044 301.447 367.032 304 365.5C306.553 363.968 316.113 350.048 319.347 350.388Z" fill="#121212"/>
<path d="M290.414 366.044V368.937C290.414 368.937 307.604 369.788 309.135 368.937C310.837 368.086 320.709 351.919 319.347 350.558C315.433 346.134 307.263 364.002 303.859 365.533C300.285 367.065 290.414 366.044 290.414 366.044Z" fill="#828282"/>
<path opacity="0.1" d="M292.286 283.169C292.286 283.169 279.351 287.083 277.479 291.508C275.777 295.932 287.35 330.307 287.35 330.307C287.35 330.307 262.672 293.38 263.012 280.276C263.523 267.343 292.286 283.169 292.286 283.169Z" fill="#121212"/>
<path d="M249.907 346.304H238.674C236.631 354.812 230.674 360.428 220.463 361.449C214.506 361.96 215.016 369.447 215.016 369.447H248.205C248.205 369.447 252.119 366.044 248.035 358.556C247.013 356.514 249.907 346.304 249.907 346.304Z" fill="#FFE1BD"/>
<path d="M220.632 361.279C214.675 361.789 215.186 369.277 215.186 369.277H248.375C248.375 369.277 252.289 365.874 248.204 358.386C245.992 359.747 240.205 360.939 233.227 356.514C230.164 358.726 224.717 360.939 220.632 361.279Z" fill="#121212"/>
<path d="M332.963 244.029C347.6 250.155 336.367 273.98 317.475 280.106C298.583 286.232 277.478 282.488 260.969 283.68C256.374 284.02 244.29 276.192 253.14 266.662C261.82 256.962 313.22 235.691 332.963 244.029Z" fill="#F5F8FF"/>
<path d="M254.672 265.471C238.504 276.192 238.163 336.093 232.887 345.453C232.887 345.453 243.609 348.856 252.63 351.919C252.63 351.919 271.011 288.785 273.054 281.467C277.649 266.322 260.119 261.897 254.672 265.471Z" fill="#F5F8FF"/>
<path d="M367.513 244.029C373.129 255.431 369.385 271.427 350.493 277.553C331.601 283.68 310.497 282.318 292.796 283.509C288.201 283.85 274.585 276.362 283.265 266.832C292.115 257.303 358.152 224.8 367.513 244.029Z" fill="#F5F8FF"/>
<path d="M325.474 159.793C325.474 159.793 326.666 166.6 324.453 167.451C322.411 168.302 319.517 168.642 319.517 168.642C319.517 168.642 331.091 185.319 344.196 167.111C344.196 167.111 340.282 167.111 339.09 165.579C337.899 164.047 337.048 156.219 337.728 150.944L325.474 159.793Z" fill="#FFE1BD"/>
<path d="M339.26 165.579C338.069 164.047 337.218 156.219 337.899 150.944L330.921 156.049C332.282 157.241 334.495 160.814 334.325 160.984C336.197 164.388 337.218 169.323 333.644 171.875C330.921 173.918 327.176 173.747 323.943 172.896C328.538 176.3 336.197 178.853 344.537 167.111C344.366 167.111 340.452 167.111 339.26 165.579Z" fill="#E9CAA5"/>
<path d="M281.393 226.842C273.394 229.394 242.758 228.884 236.971 228.884C229.993 228.884 226.249 218.673 233.397 217.822C240.205 216.971 279.18 209.994 283.265 210.675C290.584 211.696 291.265 223.778 281.393 226.842Z" fill="#FFE1BD"/>
<path d="M210.931 227.863C213.144 225.65 215.356 223.438 213.484 224.97C211.101 226.842 207.868 225.14 210.25 223.268C213.144 220.886 216.207 217.822 219.781 216.291C223.696 214.589 232.716 218.503 236.631 218.163C238.163 217.993 238.503 225.65 237.312 226.331C233.567 228.714 228.461 227.352 227.951 227.693C226.589 229.054 225.909 230.075 224.717 231.436C223.185 233.308 219.271 232.457 220.803 230.585C221.824 229.394 221.143 229.054 219.611 230.756C217.739 232.798 213.825 231.777 215.526 229.735C216.207 228.884 216.377 228.373 215.186 229.394C213.144 231.436 208.718 230.075 210.931 227.863Z" fill="#FFE1BD"/>
<path d="M227.441 359.577C227.441 359.577 233.057 356.174 233.738 353.281C234.419 350.388 237.993 352.94 238.334 353.791C238.674 354.642 234.249 359.407 227.441 359.577Z" fill="#121212"/>
<path d="M319.687 132.906V153.327C319.687 158.772 324.623 163.367 330.58 163.367C336.537 163.367 341.473 158.942 341.473 153.327V152.816C341.473 152.816 347.089 154.007 347.089 147.881C347.089 141.755 343.515 142.606 343.515 142.606V132.906H319.687Z" fill="#FFE1BD"/>
<path d="M348.281 136.139C350.834 129.842 346.579 123.546 343.856 122.695C340.963 116.569 330.921 116.909 328.027 118.611C326.666 117.59 322.411 116.229 319.858 119.292C314.922 119.462 313.22 122.865 312.88 124.397C312.199 128.141 314.071 132.735 317.986 133.586C320.709 134.267 323.602 134.607 325.645 132.735C327.687 134.437 325.134 146.69 327.517 145.669C326.495 156.56 329.219 160.304 335.516 162.176C338.239 163.026 343.005 160.474 346.238 154.518C347.77 151.795 351.855 140.734 348.281 136.139Z" fill="#121212"/>
<path d="M325.985 140.053C325.985 140.053 330.41 139.202 330.41 145.328C330.41 151.455 323.262 150.263 323.262 150.263L325.985 140.053Z" fill="#FFE1BD"/>
<path d="M323.773 168.302C323.773 168.302 316.624 167.621 312.71 171.535C308.965 175.449 302.498 192.296 304.711 211.696C307.093 231.096 303.179 243.348 303.179 243.348C303.179 243.348 329.219 256.111 370.917 247.433C370.917 247.433 372.789 192.466 362.918 173.237C359.854 167.11 345.047 167.11 342.835 166.94C340.622 166.77 323.773 168.302 323.773 168.302Z" fill="url(#paint13_linear)"/>
<path d="M320.539 190.254C316.454 197.912 289.903 220.545 284.967 224.799C279.01 230.075 266.926 223.608 269.82 216.971C272.373 211.186 301.136 180.554 305.221 178.002C312.709 173.237 325.815 180.725 320.539 190.254Z" fill="#FFE1BD"/>
<path d="M307.263 208.293C315.943 200.465 323.091 188.893 325.474 184.809C330.92 174.938 319.517 166.089 312.028 170.854C310.156 172.046 297.051 179.703 289.392 188.552C292.115 197.912 305.561 207.612 307.263 208.293Z" fill="url(#paint14_linear)"/>
<path d="M324.283 364.002C324.283 366.554 322.241 368.767 319.518 368.767C316.965 368.767 314.752 366.725 314.752 364.002C314.752 361.449 316.795 359.237 319.518 359.237C322.071 359.237 324.283 361.449 324.283 364.002Z" fill="#333333"/>
<path d="M344.877 364.002C344.877 366.554 342.835 368.767 340.112 368.767C337.559 368.767 335.346 366.725 335.346 364.002C335.346 361.449 337.388 359.237 340.112 359.237C342.835 359.237 344.877 361.449 344.877 364.002Z" fill="#333333"/>
<path d="M365.641 364.002C365.641 366.554 363.599 368.767 360.876 368.767C358.153 368.767 356.11 366.725 356.11 364.002C356.11 361.449 358.153 359.237 360.876 359.237C363.599 359.237 365.641 361.449 365.641 364.002Z" fill="#333333"/>
<path d="M345.388 247.603H335.006V361.449H345.388V247.603Z" fill="#121212"/>
<path d="M349.473 281.978H330.921V300.016H349.473V281.978Z" fill="#121212"/>
<path d="M347.26 288.955H333.304V306.993H347.26V288.955Z" fill="#121212"/>
<path d="M368.365 360.939H312.199C312.199 357.535 314.922 354.642 318.497 354.642H362.067C365.471 354.642 368.365 357.365 368.365 360.939Z" fill="#121212"/>
<path d="M339.601 198.933L339.091 203.017L327.858 281.978H384.874L395.766 206.251C396.277 201.996 393.554 198.933 389.299 198.933H339.601Z" fill="#121212"/>
<path d="M321.73 283.68L332.623 282.148L343.856 203.528C344.196 200.975 342.494 199.103 339.941 199.103C336.707 199.103 333.304 201.996 332.793 205.4L321.73 283.68Z" fill="#333333"/>
<path d="M295.69 289.466H349.473C352.196 289.466 354.238 287.253 354.238 284.701C354.238 281.978 352.026 279.936 349.473 279.936H295.69C292.967 279.936 290.924 282.148 290.924 284.701C290.924 287.253 293.137 289.466 295.69 289.466Z" fill="#333333"/>
<path d="M322.922 289.466H380.619C383.342 289.466 385.384 287.253 385.384 284.701C385.384 281.978 383.172 279.936 380.619 279.936H322.922C320.199 279.936 318.156 282.148 318.156 284.701C318.156 287.253 320.199 289.466 322.922 289.466Z" fill="#121212"/>
<defs>
<linearGradient id="paint0_linear" x1="39.0314" y1="325.791" x2="102.345" y2="325.791" gradientUnits="userSpaceOnUse">
<stop stop-color="#FF1500"/>
<stop offset="1" stop-color="#FE7000"/>
</linearGradient>
<linearGradient id="paint1_linear" x1="556.774" y1="223.479" x2="561.198" y2="223.479" gradientUnits="userSpaceOnUse">
<stop stop-color="#FF1500"/>
<stop offset="1" stop-color="#FE7000"/>
</linearGradient>
<linearGradient id="paint2_linear" x1="523.585" y1="103.493" x2="590.983" y2="103.493" gradientUnits="userSpaceOnUse">
<stop stop-color="#FF1500"/>
<stop offset="1" stop-color="#FE7000"/>
</linearGradient>
<linearGradient id="paint3_linear" x1="508.097" y1="368.246" x2="606.471" y2="368.246" gradientUnits="userSpaceOnUse">
<stop stop-color="#FF1500"/>
<stop offset="1" stop-color="#FE7000"/>
</linearGradient>
<linearGradient id="paint4_linear" x1="245" y1="80.96" x2="271" y2="80.96" gradientUnits="userSpaceOnUse">
<stop stop-color="#FF1500"/>
<stop offset="1" stop-color="#FE7000"/>
</linearGradient>
<linearGradient id="paint5_linear" x1="403.549" y1="217.468" x2="414.148" y2="217.468" gradientUnits="userSpaceOnUse">
<stop stop-color="#FF1500"/>
<stop offset="1" stop-color="#FE7000"/>
</linearGradient>
<linearGradient id="paint6_linear" x1="410.573" y1="218.83" x2="438.316" y2="218.83" gradientUnits="userSpaceOnUse">
<stop stop-color="#FF1500"/>
<stop offset="1" stop-color="#FE7000"/>
</linearGradient>
<linearGradient id="paint7_linear" x1="438.394" y1="206.995" x2="410.578" y2="206.995" gradientUnits="userSpaceOnUse">
<stop stop-color="#FF7300"/>
<stop offset="1" stop-color="#FFD000"/>
</linearGradient>
<linearGradient id="paint8_linear" x1="411.594" y1="206.809" x2="437.465" y2="206.809" gradientUnits="userSpaceOnUse">
<stop stop-color="#FF1500"/>
<stop offset="1" stop-color="#FE7000"/>
</linearGradient>
<linearGradient id="paint9_linear" x1="215.186" y1="161.893" x2="219.952" y2="161.893" gradientUnits="userSpaceOnUse">
<stop stop-color="#FF1500"/>
<stop offset="1" stop-color="#FE7000"/>
</linearGradient>
<linearGradient id="paint10_linear" x1="281.393" y1="151.002" x2="286.159" y2="151.002" gradientUnits="userSpaceOnUse">
<stop stop-color="#FF1500"/>
<stop offset="1" stop-color="#FE7000"/>
</linearGradient>
<linearGradient id="paint11_linear" x1="209.059" y1="191.844" x2="213.825" y2="191.844" gradientUnits="userSpaceOnUse">
<stop stop-color="#FF1500"/>
<stop offset="1" stop-color="#FE7000"/>
</linearGradient>
<linearGradient id="paint12_linear" x1="274.755" y1="180.102" x2="279.521" y2="180.102" gradientUnits="userSpaceOnUse">
<stop stop-color="#FF1500"/>
<stop offset="1" stop-color="#FE7000"/>
</linearGradient>
<linearGradient id="paint13_linear" x1="303.179" y1="205.351" x2="371.059" y2="205.351" gradientUnits="userSpaceOnUse">
<stop stop-color="#FF1500"/>
<stop offset="1" stop-color="#FE7000"/>
</linearGradient>
<linearGradient id="paint14_linear" x1="289.392" y1="187.359" x2="326.898" y2="187.359" gradientUnits="userSpaceOnUse">
<stop stop-color="#FF1500"/>
<stop offset="1" stop-color="#FE7000"/>
</linearGradient>
</defs>
</svg>
