<svg width="24" height="12" viewBox="0 0 24 12" fill="none" xmlns="http://www.w3.org/2000/svg">
<path d="M0.749981 1.49996H23.25C23.664 1.49996 23.9999 1.16393 23.9999 0.749981C23.9999 0.335964 23.6639 0 23.25 0H0.749981C0.335964 0 0 0.336026 0 0.749981C0 1.16393 0.336026 1.49996 0.749981 1.49996Z" fill="white"/>
<path d="M23.25 5.25012H0.749981C0.335964 5.25012 0 5.58615 0 6.0001C0 6.41406 0.336026 6.75008 0.749981 6.75008H23.25C23.664 6.75008 23.9999 6.41406 23.9999 6.0001C23.9999 5.58615 23.664 5.25012 23.25 5.25012Z" fill="white"/>
<path d="M15.75 10.5H0.74998C0.335963 10.5 0 10.836 0 11.25C0 11.664 0.336026 12 0.74998 12H15.75C16.164 12 16.4999 11.6639 16.4999 11.25C16.5 10.836 16.164 10.5 15.75 10.5Z" fill="white"/>
</svg>
