<svg width="120" height="23" viewBox="0 0 120 23" fill="none" xmlns="http://www.w3.org/2000/svg">
<g clip-path="url(#clip0)">
<path fill-rule="evenodd" clip-rule="evenodd" d="M43.9568 20.1705H45.5605L39.4605 9.34766H37.1632L31.0485 20.1705H32.6817L33.9582 17.8835H42.6802L43.9568 20.1705ZM42.0014 16.618H34.6543L38.0536 10.6132H38.639L42.0063 16.618H42.0014ZM46.0451 22.8817H47.2257V19.2799H47.2897C47.8579 20.057 48.5687 20.2667 50.7332 20.2667C52.7895 20.2667 53.7586 20.1359 54.3735 19.7733C55.3451 19.2034 55.7657 18.182 55.7657 16.4132C55.7657 14.6443 55.409 13.6871 54.5039 13.1197C53.825 12.6806 52.9666 12.5523 50.8636 12.5523C48.5023 12.5523 47.821 12.7447 47.2872 13.623H47.2233V12.6362H46.0426V22.8595L46.0451 22.8817ZM51.1415 13.5983C53.9726 13.5983 54.5063 14.0547 54.5063 16.4403C54.5063 17.7207 54.2948 18.3868 53.7684 18.7766C53.3011 19.117 52.5386 19.2305 50.7111 19.2305C47.7349 19.2305 47.2011 18.7914 47.2011 16.3417C47.2011 15.0933 47.4102 14.4445 47.939 14.0375C48.3941 13.7143 49.1861 13.5983 51.1366 13.5983H51.1415ZM56.9021 22.8817H58.0827V19.2799H58.1467C58.7124 20.057 59.4257 20.2667 61.5902 20.2667C63.644 20.2667 64.6156 20.1359 65.2305 19.7733C66.2021 19.2034 66.6227 18.182 66.6227 16.4132C66.6227 14.6443 66.266 13.6871 65.3609 13.1197C64.6795 12.6806 63.8236 12.5523 61.7206 12.5523C59.3568 12.5523 58.6779 12.7447 58.1442 13.623H58.0802V12.6362H56.8996V22.8595L56.9021 22.8817ZM62.0059 13.5983C64.8394 13.5983 65.3732 14.0547 65.3732 16.4403C65.3732 17.7207 65.1616 18.3868 64.6353 18.7766C64.1655 19.117 63.4054 19.2305 61.5779 19.2305C58.6017 19.2305 58.0655 18.7914 58.0655 16.3417C58.0655 15.0933 58.277 14.4445 58.8034 14.0375C59.256 13.7143 60.0504 13.5983 62.001 13.5983H62.0059Z" fill="white"/>
<path fill-rule="evenodd" clip-rule="evenodd" d="M72.8284 20.1013L66.7407 9.27105L66.6251 9.06628H68.5264L68.5658 9.13783L73.8639 18.5594H74.2206L79.3859 9.13783L79.4252 9.06628H81.3438L81.2306 9.27105L75.2881 20.0988L75.2487 20.1703H72.8702L72.8309 20.1013H72.8284ZM88.5088 18.1844C88.5511 18.023 88.5766 17.8576 88.5851 17.691L88.5974 17.5652H90.1101V17.7082C90.0855 18.6605 89.7903 19.3019 89.0942 19.709C88.3981 20.1161 87.3724 20.2616 85.8327 20.2616C84.8463 20.2824 83.8597 20.2296 82.8811 20.1037C82.3266 20.0506 81.7952 19.8542 81.3389 19.5338C80.9384 19.2082 80.6438 18.7701 80.4927 18.2757C80.2944 17.6372 80.2014 16.9706 80.2173 16.302C80.1882 15.5363 80.3077 14.7722 80.569 14.0521C80.7804 13.4999 81.1805 13.0409 81.698 12.7569C82.0815 12.5581 82.4985 12.4326 82.9278 12.3869C83.6284 12.3075 84.3333 12.2737 85.0382 12.2857C86.3418 12.2857 87.2224 12.34 87.8668 12.493C88.4272 12.6027 88.9362 12.8939 89.3156 13.3219C89.6168 13.6652 89.8266 14.0793 89.9256 14.5258C90.0573 15.1893 90.1191 15.8649 90.1101 16.5413V16.6721H81.7742C81.7834 17.0146 81.8321 17.3548 81.9193 17.686C81.9805 17.9408 82.1049 18.1758 82.2809 18.3694C82.5589 18.6237 82.9122 18.7797 83.2869 18.8135C84.0841 18.9206 84.8885 18.9635 85.6925 18.9418C86.308 18.9612 86.924 18.9224 87.5323 18.8258C87.8396 18.7881 88.1246 18.6452 88.3391 18.4212C88.4124 18.3544 88.4667 18.2692 88.4965 18.1745L88.5088 18.1844ZM82.4925 13.9905C82.0719 14.2495 81.8923 14.6886 81.821 15.3893H88.5334C88.5063 14.6985 88.3293 14.2594 87.8644 13.9979C87.3405 13.7043 86.4501 13.6056 85.0185 13.6056C83.7493 13.6056 82.9647 13.6993 82.4925 13.9905ZM90.7028 17.8168V17.2889H92.2327V17.4171L92.2475 17.6293C92.2475 18.2485 92.2918 18.5791 92.6976 18.7419C93.1576 18.927 94.0529 18.9492 95.7181 18.9492C96.4296 18.9636 97.1414 18.9413 97.8506 18.8825C98.1321 18.8789 98.4064 18.7931 98.6402 18.6358C98.7311 18.5642 98.8015 18.4697 98.8443 18.362C98.892 18.2241 98.9145 18.0787 98.9107 17.9327C98.9107 17.538 98.8074 17.2815 98.5492 17.126C98.2909 16.9706 97.7867 16.8941 97.0611 16.9015H96.2986L93.6298 16.8719C92.6115 16.8571 91.9081 16.7066 91.4727 16.3588C91.0373 16.0109 90.8233 15.4583 90.8233 14.6565C90.8137 14.2806 90.885 13.907 91.0324 13.5612C91.1719 13.2536 91.3954 12.9919 91.6769 12.8063C92.0961 12.5818 92.558 12.449 93.0321 12.4165C93.8849 12.3246 94.7425 12.285 95.6 12.2981C96.5435 12.268 97.4874 12.3374 98.4164 12.5053C98.9597 12.5887 99.4535 12.8697 99.8036 13.2948C99.9479 13.4621 100.05 13.6618 100.101 13.877C100.162 14.2022 100.186 14.5332 100.173 14.8638V15.0044H98.6549V14.8638C98.6629 14.6745 98.6488 14.4849 98.6131 14.2988C98.5949 14.2033 98.5456 14.1165 98.4729 14.0521C98.3327 13.9041 98.0548 13.8054 97.5998 13.7289C96.9292 13.645 96.2535 13.6096 95.5779 13.6229C94.9208 13.6152 94.2639 13.6448 93.6102 13.7117C93.2856 13.7224 92.9678 13.8068 92.6804 13.9584C92.5792 14.0458 92.5008 14.1566 92.4519 14.2813C92.4031 14.406 92.3852 14.5407 92.4 14.6738C92.4 15.0266 92.4886 15.2437 92.7591 15.3646C93.0715 15.5027 93.6126 15.5422 94.4809 15.5249C94.7121 15.5249 95.2877 15.5249 95.9223 15.5249C96.6798 15.5373 97.5161 15.5595 97.9367 15.5792C98.8296 15.6113 99.4593 15.8012 99.8725 16.1787C100.286 16.5561 100.48 17.1285 100.48 17.9056C100.496 18.3135 100.417 18.7196 100.251 19.0922C100.091 19.4118 99.8319 19.6712 99.5134 19.8323C99.0951 20.0247 98.6446 20.1368 98.1852 20.1629C97.5752 20.2271 96.7659 20.2567 95.6935 20.2567C94.7474 20.2757 93.801 20.2353 92.86 20.1358C92.365 20.1056 91.8863 19.9475 91.4702 19.6769C91.2037 19.4961 90.9986 19.2378 90.8824 18.9368C90.7578 18.5695 90.7019 18.1823 90.7176 17.7946L90.7028 17.8168ZM102.482 12.3894V10.5046H103.941V12.3721H109.182V13.6697H103.936V16.7782V16.793C103.968 18.1523 103.97 18.2041 104.182 18.473C104.34 18.655 104.554 18.7798 104.789 18.8283C105.204 18.9176 105.628 18.9558 106.051 18.9418C106.425 18.9593 106.8 18.9253 107.165 18.8406C107.369 18.7922 107.546 18.6655 107.657 18.4878C107.743 18.3544 107.797 18.2035 107.817 18.0462C107.854 17.7278 107.869 17.4071 107.861 17.0866V16.4772H109.318V17.0866C109.329 17.5373 109.3 17.9882 109.229 18.4335C109.178 18.7344 109.062 19.0206 108.89 19.2723C108.64 19.6457 108.266 19.9177 107.834 20.0396C107.22 20.2084 106.583 20.2825 105.945 20.2591C105.298 20.2789 104.651 20.2109 104.022 20.0568C103.591 19.956 103.208 19.7094 102.937 19.3587C102.757 19.1111 102.635 18.8261 102.581 18.5248C102.508 18.0773 102.477 17.6238 102.49 17.1704V13.6796H100.623V12.382H102.467L102.482 12.3894ZM112.591 12.3894C113.256 12.3128 113.925 12.2798 114.594 12.2907C115.49 12.2724 116.386 12.312 117.277 12.4091C117.765 12.4512 118.238 12.6011 118.662 12.8482C119.137 13.1502 119.499 13.6012 119.693 14.1311C119.925 14.8208 120.03 15.5473 120.002 16.2749C120.032 17.0292 119.92 17.7823 119.673 18.4952C119.473 19.035 119.09 19.4868 118.591 19.7707C118.195 19.9871 117.762 20.1229 117.314 20.1703C116.588 20.255 115.856 20.2905 115.125 20.2764C114.293 20.2934 113.46 20.2538 112.633 20.158C112.148 20.1094 111.678 19.9608 111.253 19.7213C110.756 19.4431 110.373 18.9962 110.174 18.4607C109.933 17.7463 109.827 16.9936 109.859 16.2404C109.83 15.4835 109.953 14.7285 110.22 14.0201C110.44 13.4683 110.849 13.0133 111.374 12.7372C111.756 12.5482 112.168 12.428 112.591 12.382V12.3894ZM116.564 13.6722C116.124 13.6278 115.546 13.6056 114.785 13.6056C113.322 13.6056 112.464 13.7092 111.986 14.099C111.509 14.4888 111.398 15.1623 111.398 16.3193C111.398 17.0792 111.47 17.617 111.644 17.9944C111.725 18.168 111.842 18.3224 111.986 18.4475C112.131 18.5725 112.3 18.6653 112.483 18.7197C112.784 18.8181 113.097 18.8762 113.413 18.8924C113.816 18.9294 114.34 18.9442 115.034 18.9442C115.669 18.9604 116.303 18.9266 116.933 18.8431C117.263 18.8054 117.578 18.6831 117.848 18.4878C118.082 18.2884 118.247 18.0199 118.32 17.7206C118.438 17.2324 118.49 16.7302 118.473 16.228C118.501 15.6808 118.426 15.1331 118.249 14.6146C118.182 14.4476 118.082 14.2959 117.955 14.1687C117.829 14.0415 117.677 13.9414 117.511 13.8745C117.209 13.7513 116.889 13.6788 116.564 13.6599V13.6722Z" fill="white"/>
<path fill-rule="evenodd" clip-rule="evenodd" d="M15.9789 13.6056L13.6275 12.2315L13.2782 12.4337L13.0175 12.5867L12.6411 12.8038L11.5835 13.4206L11.0915 13.7117L11.003 13.7635L2.48268 18.6975V16.3415L0.118934 17.7107V22.7903L1.88744 21.7689L10.5996 16.719L11.0915 16.4328L11.5835 16.1441L13.9349 14.7823L15.6222 13.7955L15.9691 13.5957L15.9789 13.6056ZM20.699 18.6926L16.2987 16.1441L13.9448 17.5084L21.2942 21.764L23.0628 22.7853V6.78428L22.4724 6.44383L17.3268 3.46367L12.1836 0.485982L11.5835 0.143066L10.9931 0.485982L5.84751 3.46367L0.704337 6.44383L0.114014 6.78428V14.9748L2.47776 13.608L7.03061 10.9708L11.5835 8.33356L13.1552 9.24389L15.974 10.8771L18.3279 12.2389L20.6892 13.608V18.6926H20.699ZM5.85735 8.92565L2.48268 10.8771V8.14607L7.03553 5.5113L11.5835 2.87405L16.1363 5.5113L20.6892 8.14607V10.8771L17.317 8.92565L12.1738 5.94549L11.5835 5.60257L10.9931 5.94549L5.85735 8.92565Z" fill="white"/>
</g>
<defs>
<clipPath id="clip0">
<rect width="120" height="23" fill="white"/>
</clipPath>
</defs>
</svg>
