<svg width="22" height="23" viewBox="0 0 22 23" fill="none" xmlns="http://www.w3.org/2000/svg">
<path fill-rule="evenodd" clip-rule="evenodd" d="M21.9894 17.7507C22.0363 18.1084 21.9273 18.4184 21.6633 18.6833L18.566 21.7566C18.4264 21.9125 18.2437 22.0436 18.0189 22.1536C17.7932 22.2617 17.5722 22.3315 17.3551 22.3621C17.3398 22.3621 17.2929 22.3659 17.2154 22.3745C17.138 22.3822 17.0366 22.386 16.9122 22.386C16.6176 22.386 16.1403 22.3353 15.4803 22.2339C14.8203 22.1335 14.013 21.8848 13.0584 21.4888C12.1028 21.0928 11.0201 20.4988 9.80911 19.7077C8.59815 18.9157 7.30876 17.8291 5.94285 16.447C4.85625 15.3757 3.9552 14.3503 3.24068 13.3727C2.52712 12.3942 1.95225 11.4903 1.51799 10.6591C1.08278 9.82881 0.756603 9.07603 0.539473 8.40072C0.322343 7.72542 0.175039 7.1429 0.0966041 6.65316C0.019126 6.16438 -0.0114827 5.77986 0.00382166 5.50055C0.019126 5.22029 0.0277347 5.06534 0.0277347 5.03473C0.0583433 4.8176 0.128169 4.59664 0.237212 4.37186C0.345299 4.14612 0.477299 3.96343 0.632255 3.82378L3.73042 0.725607C3.94755 0.509434 4.19625 0.400391 4.47555 0.400391C4.67738 0.400391 4.85625 0.458738 5.0112 0.575434C5.16712 0.691173 5.29816 0.834651 5.4072 1.00587L7.89894 5.73394C8.03955 5.98168 8.07781 6.25334 8.01563 6.5489C7.95346 6.84446 7.82146 7.09125 7.61963 7.29403L6.4785 8.43516C6.44694 8.46672 6.42016 8.51742 6.3972 8.58629C6.37329 8.65611 6.36181 8.71542 6.36181 8.76133C6.42398 9.08655 6.56363 9.45959 6.78172 9.8795C6.96729 10.2516 7.2552 10.7059 7.64259 11.2416C8.03094 11.7772 8.58189 12.3942 9.29641 13.0934C9.99467 13.807 10.6164 14.3627 11.1597 14.7587C11.703 15.1538 12.1574 15.4455 12.5228 15.6311C12.8872 15.8176 13.1665 15.9314 13.3607 15.9697L13.6514 16.0271C13.6821 16.0271 13.7337 16.0165 13.8026 15.9926C13.8734 15.9697 13.9231 15.9419 13.9547 15.9113L15.2823 14.5598C15.5616 14.312 15.8878 14.1877 16.2599 14.1877C16.5239 14.1877 16.7334 14.2336 16.8883 14.3273H16.9122L21.4069 16.9817C21.7331 17.1844 21.9273 17.4408 21.9894 17.7507Z" fill="url(#paint0_linear)"/>
<defs>
<linearGradient id="paint0_linear" x1="-2.88093e-07" y1="10.5138" x2="22" y2="10.5138" gradientUnits="userSpaceOnUse">
<stop stop-color="#FF1500"/>
<stop offset="1" stop-color="#FE7000"/>
</linearGradient>
</defs>
</svg>
